<?xml version="1.0" encoding="UTF-8" standalone="no"?>
<!-- Created with Inkscape (http://www.inkscape.org/) -->

<svg
   xmlns:dc="http://purl.org/dc/elements/1.1/"
   xmlns:cc="http://creativecommons.org/ns#"
   xmlns:rdf="http://www.w3.org/1999/02/22-rdf-syntax-ns#"
   xmlns:svg="http://www.w3.org/2000/svg"
   xmlns="http://www.w3.org/2000/svg"
   xmlns:sodipodi="http://sodipodi.sourceforge.net/DTD/sodipodi-0.dtd"
   xmlns:inkscape="http://www.inkscape.org/namespaces/inkscape"
   width="210mm"
   height="297mm"
   viewBox="0 0 744.09448819 1052.3622047"
   id="svg2"
   version="1.1"
   inkscape:version="0.91 r13725"
   sodipodi:docname="drawing2.svg">
  <defs
     id="defs4" />
  <sodipodi:namedview
     id="base"
     pagecolor="#ffffff"
     bordercolor="#666666"
     borderopacity="1.0"
     inkscape:pageopacity="0.0"
     inkscape:pageshadow="2"
     inkscape:zoom="7.9195959"
     inkscape:cx="70.620894"
     inkscape:cy="1020.249"
     inkscape:document-units="px"
     inkscape:current-layer="layer1"
     showgrid="false"
     inkscape:window-width="1280"
     inkscape:window-height="745"
     inkscape:window-x="0"
     inkscape:window-y="0"
     inkscape:window-maximized="1" />
  <metadata
     id="metadata7">
    <rdf:RDF>
      <cc:Work
         rdf:about="">
        <dc:format>image/svg+xml</dc:format>
        <dc:type
           rdf:resource="http://purl.org/dc/dcmitype/StillImage" />
        <dc:title></dc:title>
      </cc:Work>
    </rdf:RDF>
  </metadata>
  <g
     inkscape:label="Layer 1"
     inkscape:groupmode="layer"
     id="layer1">
    <path
       style="fill:none;fill-rule:evenodd;stroke:#000000;stroke-width:1px;stroke-linecap:butt;stroke-linejoin:miter;stroke-opacity:1"
       d="m 68.059028,2.8137084 c 0.210448,-0.084179 0.416317,-0.1808619 0.631345,-0.2525381 0.203227,-0.067742 0.07185,0.06604 0.252538,0.1262691 0.116704,0.038901 0.513563,-0.039261 0.631346,0 0.08929,0.029762 0.163252,0.096507 0.252538,0.126269 0.07529,0.025097 0.635276,0 0.757614,0 0.04209,0 0.08418,0 0.126269,0 0.04209,0 0.08862,-0.018823 0.126269,0 0.05324,0.02662 0.07303,0.099649 0.126269,0.1262691 0.101016,0.050508 0.277792,-0.050508 0.378808,0 0.05324,0.02662 0.07303,0.099649 0.126269,0.1262691 0.07605,0.038027 0.647248,-0.036789 0.757614,0 0.08929,0.029762 0.163253,0.096507 0.252538,0.126269 0.11896,0.039653 0.675749,-0.040933 0.757615,0 0.05324,0.02662 0.07303,0.099649 0.126269,0.1262691 0.04566,0.022832 0.54352,0 0.631345,0 0.06603,0 0.471875,-0.016601 0.505076,0 0.312062,0.156031 -0.04359,0.1262691 0.252538,0.1262691 0.294628,0 0.589256,0 0.883884,0 0.05687,0 0.340379,-0.019214 0.378807,0 0.05324,0.02662 0.07303,0.099649 0.126269,0.1262691 0.08069,0.040344 0.403443,-0.033878 0.505076,0 0.08929,0.029762 0.163253,0.096507 0.252539,0.126269 0.101634,0.033878 0.424387,-0.040344 0.505076,0 0.05324,0.02662 0.07303,0.099649 0.126269,0.1262691 0.134737,0.067368 0.117801,-0.067368 0.252538,0 0.05324,0.02662 0.07303,0.099649 0.126269,0.1262691 0.03765,0.018823 0.08862,-0.018823 0.126269,0 0.05324,0.02662 0.07674,0.093251 0.126269,0.126269 0.07831,0.052206 0.17423,0.074063 0.252538,0.1262691 0.04953,0.033018 0.07303,0.099649 0.12627,0.1262691 0.03765,0.018823 0.08862,-0.018823 0.126269,0 0.05324,0.02662 0.07303,0.099649 0.126269,0.126269 0.07529,0.037646 0.172678,-0.02662 0.252538,0 0.914619,0.3048732 -0.199077,-0.036404 0.378807,0.2525382 0.03765,0.018823 0.08862,-0.018823 0.126269,0 0.05324,0.02662 0.07303,0.099649 0.126269,0.126269 0.03765,0.018823 0.08418,0 0.126269,0 0.08418,0.04209 0.17423,0.074063 0.252538,0.1262691 0.114945,0.07663 0.26689,0.3228487 0.378808,0.3788072 0.03765,0.018823 0.08862,-0.018823 0.126269,0 0.05324,0.02662 0.07303,0.099649 0.126269,0.1262691 0.03765,0.018823 0.08862,-0.018823 0.126269,0 0.151523,0.075761 0.227284,0.3030457 0.378807,0.3788072 0.03765,0.018823 0.08862,-0.018823 0.126269,0 0.08043,0.040215 0.532127,0.5321272 0.631345,0.6313453 0.210449,0.2104485 0.420897,0.4208969 0.631346,0.6313454 0.04209,0.04209 0.08418,0.084179 0.126269,0.126269 0.04209,0.04209 0.09965,0.073029 0.126269,0.1262691 0.01882,0.037646 -0.01882,0.088623 0,0.1262691 0.05324,0.1064794 0.199298,0.1460587 0.252538,0.2525381 0.03765,0.075292 -0.02662,0.1726786 0,0.2525381 0.08839,0.2651651 0.290419,0.4924494 0.378807,0.7576145 0.02662,0.079859 -0.03765,0.1772458 0,0.2525381 0.02662,0.05324 0.09965,0.073029 0.126269,0.1262691 0.01683,0.033651 0,0.7004913 0,0.7576144 0,0.6313457 0,1.2626907 0,1.8940357 0,0.336718 0,0.673435 0,1.010153 0,0.05687 0.01921,0.340379 0,0.378807 -0.02662,0.05324 -0.09965,0.07303 -0.126269,0.126269 -0.01882,0.03765 0.01882,0.08862 0,0.126269 -0.02662,0.05324 -0.09965,0.07303 -0.126269,0.126269 -0.03765,0.07529 0.03765,0.177246 0,0.252538 -0.02662,0.05324 -0.107446,0.0698 -0.126269,0.126269 -0.02662,0.07986 0,0.168359 0,0.252539 0,0.04209 0.01882,0.08862 0,0.126269 -0.02662,0.05324 -0.09965,0.07303 -0.126269,0.126269 -0.01882,0.03765 0.01882,0.08862 0,0.126269 -0.02662,0.05324 -0.107446,0.0698 -0.126269,0.126269 -0.02662,0.07986 0.02662,0.172678 0,0.252538 -0.01882,0.05647 -0.09965,0.07303 -0.126269,0.126269 -0.01882,0.03765 0.01882,0.08862 0,0.126269 -0.418782,0.418782 0.05952,-0.119047 -0.126269,0.252538 -0.02662,0.05324 -0.09965,0.07303 -0.126269,0.126269 -0.05051,0.101016 0.05051,0.277792 0,0.378808 -0.05324,0.106479 -0.199299,0.146058 -0.252538,0.252538 -0.01882,0.03765 0.01882,0.08862 0,0.126269 -0.02662,0.05324 -0.09965,0.07303 -0.126269,0.126269 -0.03765,0.07529 0.03765,0.177246 0,0.252538 -0.06213,0.124252 -0.442951,0.380824 -0.505077,0.505076 -0.01882,0.03765 0.01882,0.08862 0,0.126269 -0.02662,0.05324 -0.09965,0.07303 -0.126269,0.126269 -0.01882,0.03765 0.01882,0.08862 0,0.126269 -0.02662,0.05324 -0.09965,0.07303 -0.126269,0.12627 -0.01882,0.03765 0.01882,0.08862 0,0.126269 -0.07576,0.151522 -0.303046,0.227284 -0.378807,0.378807 -0.01882,0.03765 0.01882,0.08862 0,0.126269 -0.02662,0.05324 -0.08418,0.08418 -0.126269,0.126269 -0.04209,0.04209 -0.08418,0.08418 -0.126269,0.126269 -0.04209,0.04209 -0.08418,0.08418 -0.126269,0.126269 -0.04209,0.04209 -0.09965,0.07303 -0.126269,0.126269 -0.01882,0.03765 0.01882,0.08862 0,0.126269 -0.02662,0.05324 -0.08418,0.08418 -0.126269,0.126269 -0.04209,0.04209 -0.08418,0.08418 -0.12627,0.126269 -0.168358,0.168359 -0.336717,0.336718 -0.505076,0.505077 -0.07426,0.07426 -0.446604,0.47584 -0.505076,0.505076 -0.03765,0.01882 -0.08862,-0.01882 -0.126269,0 -0.05324,0.02662 -0.07303,0.09965 -0.126269,0.126269 -0.03765,0.01882 -0.08862,-0.01882 -0.126269,0 -0.385066,0.192533 0.230939,0.100102 -0.378807,0.252538 -0.08167,0.02042 -0.168359,0 -0.252539,0 -0.04209,0 -0.08862,-0.01882 -0.126269,0 -0.106479,0.05324 -0.146058,0.199299 -0.252538,0.252538 -0.0745,0.03725 -0.291955,-0.02895 -0.378807,0 -0.08929,0.02976 -0.161233,0.103443 -0.252538,0.126269 -0.122499,0.03063 -0.259018,-0.03993 -0.378807,0 -0.08929,0.02976 -0.17423,0.07406 -0.252539,0.126269 -0.04953,0.03302 -0.0698,0.107446 -0.126269,0.126269 -0.06961,0.0232 -0.650456,0 -0.757614,0 -0.126269,0 -0.259018,-0.03993 -0.378807,0 -0.05647,0.01882 -0.07303,0.09965 -0.126269,0.126269 -0.0803,0.04015 -0.526767,-0.03486 -0.631346,0 -0.05647,0.01882 -0.07303,0.09965 -0.126269,0.12627 -0.03765,0.01882 -0.08418,0 -0.126269,0 -0.210448,0 -0.420897,0 -0.631345,0 -0.04209,0 -0.08418,0 -0.126269,0 -0.04209,0 -0.08862,-0.01882 -0.126269,0 -0.05324,0.02662 -0.07303,0.09965 -0.126269,0.126269 -0.07529,0.03765 -0.172679,-0.02662 -0.252538,0 -0.08929,0.02976 -0.163253,0.09651 -0.252539,0.126269 -0.03993,0.01331 -0.08418,0 -0.126269,0 -0.146159,0 -0.518614,-0.02818 -0.631345,0 -0.09131,0.02283 -0.163252,0.09651 -0.252538,0.126269 -0.03993,0.01331 -0.08418,0 -0.126269,0 -0.07048,0 -0.573544,-0.01927 -0.631346,0 -0.05647,0.01882 -0.07303,0.09965 -0.126269,0.126269 -0.07936,0.03968 -0.425713,-0.03968 -0.505076,0 -0.05324,0.02662 -0.07303,0.09965 -0.126269,0.126269 -0.03843,0.01921 -0.321941,0 -0.378807,0 -0.294628,0 -0.589256,0 -0.883884,0 -0.589255,0 -1.178511,0 -1.767767,0 -0.841793,0 -1.683587,0 -2.525381,0 -0.294628,0 -0.589256,0 -0.883883,0 -0.08418,0 -0.170873,0.02042 -0.252539,0 -0.224828,0.253587 -0.378807,-0.210449 -0.505076,-0.252538 -0.159719,-0.05324 -0.341744,0.04083 -0.505076,0 -0.0913,-0.02283 -0.163253,-0.09651 -0.252538,-0.126269 -0.07986,-0.02662 -0.168359,0 -0.252538,0 -0.08564,0 -0.776733,0.02679 -0.883884,0 -0.09131,-0.02283 -0.163252,-0.09651 -0.252538,-0.126269 -0.07451,-0.02484 -0.560795,0 -0.631345,0 -0.04209,0 -0.08634,0.01331 -0.126269,0 -0.08929,-0.02976 -0.163253,-0.09651 -0.252539,-0.126269 -0.07986,-0.02662 -0.172678,0.02662 -0.252538,0 -0.783765,-0.261256 0.419658,0.01021 -0.631345,-0.252539 -0.04083,-0.01021 -0.08634,0.01331 -0.126269,0 -0.08929,-0.02976 -0.163252,-0.09651 -0.252538,-0.126269 -0.03993,-0.01331 -0.08634,0.01331 -0.126269,0 -0.08929,-0.02976 -0.163253,-0.09651 -0.252538,-0.126269 -0.03993,-0.01331 -0.08862,0.01882 -0.126269,0 -0.05324,-0.02662 -0.08418,-0.08418 -0.12627,-0.126269 -0.08418,-0.04209 -0.165154,-0.09131 -0.252538,-0.126269 -0.256677,-0.102671 -0.409252,-0.104476 -0.631345,-0.252538 -0.04953,-0.03302 -0.07674,-0.09325 -0.126269,-0.126269 -0.156618,-0.104412 -0.348459,-0.148127 -0.505076,-0.252538 -0.04953,-0.03302 -0.07674,-0.09325 -0.126269,-0.126269 -0.915525,-0.457762 0.199648,0.133099 -0.378808,-0.252538 -0.07831,-0.05221 -0.174229,-0.07406 -0.252538,-0.126269 -0.04953,-0.03302 -0.07674,-0.09325 -0.126269,-0.12627 -0.07831,-0.0522 -0.174229,-0.07406 -0.252538,-0.126269 -0.09905,-0.06604 -0.146059,-0.199298 -0.252538,-0.252538 -0.119048,-0.05952 -0.264676,-0.05779 -0.378807,-0.126269 -0.153124,-0.09187 -0.252538,-0.252538 -0.378808,-0.378807 -0.294627,-0.294628 -0.589255,-0.589256 -0.883883,-0.883883 -0.294628,-0.294628 -0.589256,-0.589256 -0.883883,-0.883884 -0.09863,-0.09863 -0.306169,-0.26985 -0.378808,-0.378807 -0.239207,0.01438 -0.08418,-0.294628 -0.126269,-0.378807 -0.02662,-0.05324 -0.09965,-0.07303 -0.126269,-0.126269 -0.01882,-0.03765 0.01331,-0.08634 0,-0.12627 -0.02976,-0.08929 -0.09651,-0.163252 -0.126269,-0.252538 -0.01331,-0.03993 0.01882,-0.08862 0,-0.126269 -0.02662,-0.05324 -0.107446,-0.0698 -0.126269,-0.126269 -0.03993,-0.119789 0.03993,-0.259018 0,-0.378807 -0.02976,-0.08929 -0.09651,-0.163252 -0.126269,-0.252538 -0.01331,-0.03993 0,-0.08418 0,-0.126269 0,-0.210449 0,-0.420897 0,-0.631346 0,-0.547166 0,-1.094331 0,-1.641497 0,-0.420897 0,-0.841794 0,-1.262691 0,-0.09027 -0.02155,-0.692979 0,-0.757615 0.01882,-0.05647 0.09965,-0.07303 0.126269,-0.126269 0.01882,-0.03765 -0.01882,-0.08862 0,-0.126269 0.02662,-0.053239 0.107446,-0.069799 0.126269,-0.1262687 0.05324,-0.1597192 -0.07529,-0.3544917 0,-0.5050763 0.126269,-0.2525381 0.252538,-0.1894036 0.378807,-0.3788072 0.05221,-0.078309 0.08418,-0.1683588 0.126269,-0.2525381 0.04209,-0.084179 0.09651,-0.1632525 0.126269,-0.2525382 0.01331,-0.03993 -0.01882,-0.088623 0,-0.126269 0.02662,-0.05324 0.107446,-0.0698 0.12627,-0.1262691 0.02662,-0.07986 -0.02662,-0.1726786 0,-0.2525382 0.01882,-0.056469 0.08418,-0.084179 0.126269,-0.126269 0.126269,-0.1262691 0.252538,-0.2525382 0.378807,-0.3788072 0.04209,-0.04209 0.09325,-0.076742 0.126269,-0.1262691 0.05221,-0.078309 0.0698,-0.1772458 0.126269,-0.2525381 0.107143,-0.1428572 0.279754,-0.2302268 0.378807,-0.3788072 0.05221,-0.078309 0.09651,-0.1632525 0.126269,-0.2525382 0.01331,-0.03993 -0.03765,-0.107446 0,-0.126269 0.155219,-0.07761 0.369564,-0.017859 0.505076,-0.1262691 0.527627,0.01341 0.0036,-0.3823648 0.12627,-0.5050763 0.05952,-0.059524 0.182496,0.046694 0.252538,0 0.07031,-0.046875 0.570197,-0.6109626 0.631345,-0.6313453 0.07986,-0.02662 0.172679,0.02662 0.252538,0 0.112939,-0.037646 0.153485,-0.1865024 0.252538,-0.2525382 0.07831,-0.052206 0.17423,-0.074063 0.252538,-0.126269 0.04953,-0.033018 0.07303,-0.099649 0.126269,-0.1262691 0.119048,-0.059524 0.25976,-0.066745 0.378808,-0.1262691 0.577884,-0.2889419 -0.535813,0.052335 0.378807,-0.2525381 0.03993,-0.01331 0.09125,0.023347 0.126269,0 0.09905,-0.066036 0.153485,-0.1865024 0.252538,-0.2525381 0.03502,-0.023347 0.08634,0.01331 0.126269,0 0.91462,-0.3048732 -0.199077,0.036404 0.378807,-0.2525382 0.03765,-0.018823 0.08418,0 0.126269,0 0.08418,0 0.172679,0.02662 0.252539,0 0.05647,-0.018823 0.07303,-0.099649 0.126269,-0.126269 0.03765,-0.018823 0.08862,0.018823 0.126269,0 0.05324,-0.02662 0.07303,-0.099649 0.126269,-0.1262691 0.03765,-0.018823 0.08862,0.018823 0.126269,0 0.05324,-0.02662 0.0698,-0.107446 0.126269,-0.1262691 0.0859,-0.028634 0.564392,0.033476 0.631345,0 0.05324,-0.02662 0.07303,-0.099649 0.126269,-0.1262691 0.07529,-0.037646 0.177246,0.037646 0.252538,0 0.05324,-0.02662 0.07303,-0.099649 0.12627,-0.126269 0.03765,-0.018823 0.08418,0 0.126269,0 0.08418,0 0.172678,0.02662 0.252538,0 0.05647,-0.018823 0.07303,-0.099649 0.126269,-0.1262691 0.03765,-0.018823 0.08544,0.010208 0.126269,0 0.129125,-0.032281 0.249682,-0.093988 0.378807,-0.1262691 0.04083,-0.010208 0.08862,0.018823 0.126269,0 0.05324,-0.02662 0.07303,-0.099649 0.126269,-0.126269 0.03765,-0.018823 0.08418,0 0.126269,0 0.08418,0 0.172679,0.02662 0.252538,0 0.05647,-0.018823 0.0698,-0.107446 0.12627,-0.1262691 0.07986,-0.02662 0.170872,0.020417 0.252538,0 0.09131,-0.022826 0.163252,-0.096507 0.252538,-0.1262691 0.07451,-0.024838 0.560795,0 0.631345,0 0.04209,0 0.08862,0.018823 0.126269,0 0.05324,-0.02662 0.07303,-0.099649 0.126269,-0.126269 0.03843,-0.019214 0.321941,0 0.378807,0 0.336718,0 0.673435,0 1.010153,0 0.757614,0 1.515229,0 2.272843,0"
       id="path3860"
       inkscape:connector-curvature="0" />
    <path
       style="fill:none;fill-rule:evenodd;stroke:#000000;stroke-width:1px;stroke-linecap:butt;stroke-linejoin:miter;stroke-opacity:1"
       d="m 62.629458,8.8746237 c 0.252538,0 0.505076,0 0.757614,0 0.04209,0 0.08862,-0.018823 0.126269,0 0.03353,0.016763 0.362045,0.3452814 0.378808,0.3788072 0.01632,0.032647 0,0.6681147 0,0.7576141 0,0.08719 0.01919,0.466686 0,0.505077 -0.02662,0.05324 -0.08418,0.08418 -0.126269,0.126269 -0.04209,0.04209 -0.07303,0.09965 -0.12627,0.126269 -0.03765,0.01882 -0.08862,-0.01882 -0.126269,0 -0.106479,0.05324 -0.146058,0.199298 -0.252538,0.252538 -0.04566,0.02283 -0.54352,0 -0.631345,0 -0.252538,0 -0.505076,0 -0.757614,0 -0.04209,0 -0.08418,0 -0.12627,0 -0.04209,0 -0.08862,0.01882 -0.126269,0 -0.05324,-0.02662 -0.08418,-0.08418 -0.126269,-0.126269 -0.04209,-0.04209 -0.09965,-0.07303 -0.126269,-0.126269 -0.0166,-0.0332 0,-0.439048 0,-0.505077 0,-0.05687 -0.01921,-0.3403788 0,-0.3788067 0.139594,-0.2791879 0.07837,-0.039184 0.252538,-0.1262691 0.124253,-0.062126 0.380824,-0.4429501 0.505077,-0.5050763 0.03765,-0.018823 0.08418,0 0.126269,0 0.126269,-0.126269 0.252538,-0.2525381 0.378807,-0.3788072 z"
       id="path3862"
       inkscape:connector-curvature="0" />
    <path
       style="fill:none;fill-rule:evenodd;stroke:#000000;stroke-width:1px;stroke-linecap:butt;stroke-linejoin:miter;stroke-opacity:1"
       d="m 73.741136,8.6220856 c 0.505076,0 1.010152,0 1.515229,0 0.05687,0 0.340379,-0.019214 0.378807,0 0.02417,0.012085 0.492991,0.4809058 0.505076,0.5050763 0.0166,0.033201 0,0.4390475 0,0.5050762 0,0.0895 0.01632,0.7249679 0,0.7576149 -0.02662,0.05324 -0.08418,0.08418 -0.126269,0.126269 -0.04209,0.04209 -0.07303,0.09965 -0.126269,0.126269 -0.03765,0.01882 -0.08418,0 -0.126269,0 -0.04209,0 -0.08418,0 -0.126269,0 -0.04209,0 -0.08862,-0.01882 -0.126269,0 -0.05324,0.02662 -0.07303,0.09965 -0.126269,0.126269 -0.0745,0.03725 -0.291955,-0.02895 -0.378807,0 -0.08929,0.02976 -0.163253,0.09651 -0.252539,0.126269 -0.07986,0.02662 -0.168358,0 -0.252538,0 -0.210448,0 -0.420897,0 -0.631345,0 -0.06603,0 -0.471875,0.0166 -0.505076,0 -0.05324,-0.02662 -0.07303,-0.09965 -0.126269,-0.126269 -0.03765,-0.01882 -0.08862,0.01882 -0.126269,0 -0.05847,-0.02924 -0.430812,-0.430812 -0.505077,-0.505077 -0.04209,-0.04209 -0.08418,-0.08418 -0.126269,-0.126269 -0.04209,-0.04209 -0.09965,-0.07303 -0.126269,-0.126269 -0.01921,-0.038428 0,-0.3219406 0,-0.3788069 0,-0.04209 0,-0.084179 0,-0.126269 0,-0.04209 -0.01882,-0.088623 0,-0.1262691 0.02662,-0.05324 0.08418,-0.084179 0.126269,-0.1262691 0.04209,-0.04209 0.08418,-0.084179 0.126269,-0.126269 0.04209,-0.04209 0.08418,-0.084179 0.126269,-0.1262691 0.04209,-0.04209 0.07303,-0.099649 0.126269,-0.1262691 0.03765,-0.018823 0.12627,-0.04209 0.12627,0 0,0.04209 -0.156031,0.029762 -0.12627,0 0.06655,-0.06655 0.163253,-0.096507 0.252539,-0.126269 0.03993,-0.01331 0.085,0.00825 0.126269,0 0.17017,-0.034034 0.336717,-0.084179 0.505076,-0.1262691 z"
       id="path3864"
       inkscape:connector-curvature="0" />
    <path
       style="fill:none;fill-rule:evenodd;stroke:#000000;stroke-width:1px;stroke-linecap:butt;stroke-linejoin:miter;stroke-opacity:1"
       d="m 77.024132,14.683001 c 0,0.168359 0.03302,0.339987 0,0.505076 -0.01167,0.05837 -0.08418,0.08418 -0.126269,0.126269 -0.04209,0.04209 -0.07674,0.09325 -0.126269,0.126269 -0.07831,0.05221 -0.163253,0.09651 -0.252539,0.126269 -0.03993,0.01331 -0.08862,-0.01882 -0.126269,0 -0.151523,0.07576 -0.227284,0.303046 -0.378807,0.378808 -0.03765,0.01882 -0.08634,-0.01331 -0.126269,0 -0.914619,0.304873 0.199077,-0.0364 -0.378807,0.252538 -0.03765,0.01882 -0.08862,-0.01882 -0.126269,0 -0.10648,0.05324 -0.1396,0.214892 -0.252538,0.252538 -0.07986,0.02662 -0.172679,-0.02662 -0.252538,0 -0.05647,0.01882 -0.07303,0.09965 -0.12627,0.126269 -0.03765,0.01882 -0.08862,-0.01882 -0.126269,0 -0.05324,0.02662 -0.07303,0.09965 -0.126269,0.126269 -0.03765,0.01882 -0.08862,-0.01882 -0.126269,0 -0.05324,0.02662 -0.07303,0.09965 -0.126269,0.126269 -0.134737,0.06737 -0.117801,-0.06737 -0.252538,0 -0.05324,0.02662 -0.07303,0.09965 -0.126269,0.126269 -0.03765,0.01882 -0.08862,-0.01882 -0.126269,0 -0.05324,0.02662 -0.07303,0.09965 -0.126269,0.126269 -0.03765,0.01882 -0.08862,-0.01882 -0.126269,0 -0.05324,0.02662 -0.07303,0.09965 -0.126269,0.126269 -0.03765,0.01882 -0.08862,-0.01882 -0.126269,0 -0.05324,0.02662 -0.07303,0.09965 -0.126269,0.126269 -0.101016,0.05051 -0.277792,-0.05051 -0.378808,0 -0.05324,0.02662 -0.07303,0.09965 -0.126269,0.126269 -0.07936,0.03968 -0.425713,-0.03968 -0.505076,0 -0.05324,0.02662 -0.07303,0.09965 -0.126269,0.126269 -0.101015,0.05051 -0.277792,-0.05051 -0.378807,0 -0.05324,0.02662 -0.07303,0.09965 -0.126269,0.12627 -0.07529,0.03765 -0.177246,-0.03765 -0.252538,0 -0.05324,0.02662 -0.07303,0.09965 -0.12627,0.126269 -0.07529,0.03765 -0.172678,-0.02662 -0.252538,0 -0.08928,0.02976 -0.163252,0.09651 -0.252538,0.126269 -0.08685,0.02895 -0.304306,-0.03725 -0.378807,0 -0.05324,0.02662 -0.07303,0.09965 -0.126269,0.126269 -0.03265,0.01632 -0.668115,0 -0.757614,0 -0.04209,0 -0.08862,-0.01882 -0.12627,0 -0.05324,0.02662 -0.07303,0.09965 -0.126269,0.126269 -0.04024,0.02012 -0.518496,0 -0.631345,0 -0.547166,0 -1.094332,0 -1.641498,0 -0.547166,0 -1.094332,0 -1.641498,0 -0.122338,0 -0.682324,0.0251 -0.757614,0 -0.08929,-0.02976 -0.163253,-0.09651 -0.252538,-0.126269 -0.07986,-0.02662 -0.177246,0.03765 -0.252538,0 -0.05324,-0.02662 -0.07303,-0.09965 -0.126269,-0.126269 -0.07529,-0.03765 -0.177246,0.03765 -0.252539,0 -0.05324,-0.02662 -0.07303,-0.09965 -0.126269,-0.126269 -0.07529,-0.03765 -0.177245,0.03765 -0.252538,0 -0.05324,-0.02662 -0.07303,-0.09965 -0.126269,-0.126269 -0.07529,-0.03765 -0.172678,0.02662 -0.252538,0 -0.08929,-0.02976 -0.163252,-0.09651 -0.252538,-0.12627 -0.03993,-0.01331 -0.08862,0.01882 -0.126269,0 -0.05324,-0.02662 -0.07303,-0.09965 -0.126269,-0.126269 -0.101016,-0.05051 -0.277792,0.05051 -0.378807,0 -0.05324,-0.02662 -0.07303,-0.09965 -0.12627,-0.126269 -0.03765,-0.01882 -0.08862,0.01882 -0.126269,0 -0.05324,-0.02662 -0.07303,-0.09965 -0.126269,-0.126269 -0.03765,-0.01882 -0.08862,0.01882 -0.126269,0 -0.05324,-0.02662 -0.07303,-0.09965 -0.126269,-0.126269 -0.101015,-0.05051 -0.277792,0.05051 -0.378807,0 -0.05847,-0.02924 -0.430812,-0.430812 -0.505076,-0.505076 -0.04209,-0.04209 -0.07303,-0.09965 -0.126269,-0.126269 -0.03765,-0.01882 -0.08862,0.01882 -0.126269,0 -0.10648,-0.05324 -0.146059,-0.199299 -0.252539,-0.252538 -0.03765,-0.01882 -0.08862,0.01882 -0.126269,0 -0.05324,-0.02662 -0.08418,-0.08418 -0.126269,-0.126269 -0.04209,-0.04209 -0.08418,-0.08418 -0.126269,-0.126269 -0.210448,-0.210449 -0.420897,-0.420897 -0.631345,-0.631346"
       id="path3866"
       inkscape:connector-curvature="0" />
  </g>
</svg>
