<?xml version="1.0" encoding="UTF-8" standalone="no"?>
<!-- Created with Inkscape (http://www.inkscape.org/) -->

<svg
   xmlns:dc="http://purl.org/dc/elements/1.1/"
   xmlns:cc="http://creativecommons.org/ns#"
   xmlns:rdf="http://www.w3.org/1999/02/22-rdf-syntax-ns#"
   xmlns:svg="http://www.w3.org/2000/svg"
   xmlns="http://www.w3.org/2000/svg"
   xmlns:sodipodi="http://sodipodi.sourceforge.net/DTD/sodipodi-0.dtd"
   xmlns:inkscape="http://www.inkscape.org/namespaces/inkscape"
   width="210mm"
   height="297mm"
   viewBox="0 0 744.09448819 1052.3622047"
   id="svg2"
   version="1.1"
   inkscape:version="0.91 r13725"
   sodipodi:docname="drawing1.svg">
  <defs
     id="defs4" />
  <sodipodi:namedview
     id="base"
     pagecolor="#ffffff"
     bordercolor="#666666"
     borderopacity="1.0"
     inkscape:pageopacity="0.0"
     inkscape:pageshadow="2"
     inkscape:zoom="7.9195959"
     inkscape:cx="70.620894"
     inkscape:cy="1018.5107"
     inkscape:document-units="px"
     inkscape:current-layer="layer1"
     showgrid="false"
     inkscape:window-width="1280"
     inkscape:window-height="745"
     inkscape:window-x="0"
     inkscape:window-y="0"
     inkscape:window-maximized="1" />
  <metadata
     id="metadata7">
    <rdf:RDF>
      <cc:Work
         rdf:about="">
        <dc:format>image/svg+xml</dc:format>
        <dc:type
           rdf:resource="http://purl.org/dc/dcmitype/StillImage" />
        <dc:title></dc:title>
      </cc:Work>
    </rdf:RDF>
  </metadata>
  <g
     inkscape:label="Layer 1"
     inkscape:groupmode="layer"
     id="layer1">
    <path
       style="fill:none;fill-rule:evenodd;stroke:#000000;stroke-width:1px;stroke-linecap:butt;stroke-linejoin:miter;stroke-opacity:1"
       d="m 7.449875,4.9602826 c 0,0.5050763 0,1.0101526 0,1.5152288 0,0.1262691 -0.020758,0.2542562 0,0.3788072 0.021881,0.1312884 0.107446,0.2470457 0.1262691,0.3788072 0.058206,0.4074438 -0.051732,0.9751073 0,1.3889598 0.021525,0.1722001 0.1071048,0.3325974 0.1262691,0.5050763 0.02324,0.2091612 0,0.4208969 0,0.6313453 0,0.2104485 0,0.4208968 0,0.6313458 0,0.210448 0,0.420896 0,0.631345 0,0.210448 0.02094,0.421941 0,0.631345 -0.021355,0.213551 -0.104914,0.417795 -0.1262691,0.631346 -0.02094,0.209404 0,0.420896 0,0.631345 0,0.294628 0,0.589256 0,0.883883 0,0.168359 0,0.336718 0,0.505077 0,0.126269 -0.020758,0.254256 0,0.378807 0.021881,0.131288 0.1043877,0.247519 0.1262691,0.378807 0.020759,0.124551 0,0.252538 0,0.378807 0,0.378807 0,0.757615 0,1.136422 0,0.126269 -0.020758,0.254256 0,0.378807 0.021881,0.131288 0.1043877,0.247519 0.126269,0.378807 0.020758,0.124551 0,0.252538 0,0.378808 0,0.126269 0,0.252538 0,0.378807 0,0.14983 0.024509,0.887606 0,1.010152 -0.018458,0.09229 -0.1034427,0.161233 -0.126269,0.252538 -0.020416,0.08167 0,0.168359 0,0.252539 0,0.294627 0,0.589255 0,0.883883 0,0.08418 0.02662,0.172679 0,0.252538 -0.018823,0.05647 -0.099649,0.07303 -0.1262691,0.126269 -0.018725,0.03745 0,0.635483 0,0.757615"
       id="path3777"
       inkscape:connector-curvature="0" />
    <path
       style="fill:none;fill-rule:evenodd;stroke:#000000;stroke-width:1px;stroke-linecap:butt;stroke-linejoin:miter;stroke-opacity:1"
       d="M 2.0203051,5.4653589 C 2.063181,4.7406778 2.4489196,5.3141861 2.6516504,5.2128207 2.8536228,5.1118345 2.7022162,5.0612688 2.9041886,4.9602826 c 0.037646,-0.018823 0.088623,0.018823 0.126269,0 0.05324,-0.02662 0.076742,-0.093251 0.1262691,-0.1262691 0.078309,-0.052206 0.1742294,-0.074063 0.2525381,-0.126269 0.099054,-0.066036 0.1395997,-0.214892 0.2525382,-0.2525382 0.07986,-0.02662 0.1708721,0.020416 0.2525381,0 0.1826107,-0.045653 0.3224656,-0.2068854 0.5050763,-0.2525381 0.081666,-0.020416 0.1683588,0 0.2525381,0 0.2946279,0 0.5892557,0 0.8838835,0 0.084179,0 0.1708722,0.020417 0.2525381,0 0.091305,-0.022826 0.1612328,-0.1034427 0.2525382,-0.1262691 0.081666,-0.020416 0.1708721,0.020417 0.2525381,0 0.091305,-0.022826 0.1612328,-0.1034427 0.2525382,-0.126269 0.1633319,-0.040833 0.3417442,0.040833 0.5050762,0 0.091305,-0.022826 0.1612328,-0.1034428 0.2525382,-0.1262691 0.081666,-0.020417 0.1683587,0 0.2525381,0 0.084179,0 0.1683588,0 0.2525381,0 0.4629866,0 0.9259732,0 1.3889598,0 0.2525381,0 0.5050763,0 0.7576144,0 0.1262686,0 0.2525386,0 0.3788076,0 0.08418,0 0.170872,-0.020417 0.252538,0 0.09131,0.022826 0.161233,0.1034427 0.252538,0.1262691 0.08167,0.020417 0.170872,-0.020417 0.252538,0 0.09131,0.022826 0.161233,0.1034427 0.252538,0.126269 0.08167,0.020417 0.168359,0 0.252538,0 0.252538,0 0.505077,0 0.757615,0 0.08418,0 0.172678,-0.02662 0.252538,0 0.05647,0.018823 0.07303,0.099649 0.126269,0.1262691 0.03765,0.018823 0.08634,-0.01331 0.126269,0 0.178571,0.059524 0.326505,0.1930143 0.505076,0.2525381 0.03993,0.01331 0.08862,-0.018823 0.126269,0 0.06744,0.033719 0.312331,0.3123311 0.378808,0.3788072 0.06648,0.066476 0.345088,0.311369 0.378807,0.3788072 0.01882,0.037646 -0.01882,0.088623 0,0.1262691 0.02662,0.05324 0.107446,0.0698 0.126269,0.1262691 0.02662,0.07986 -0.02662,0.1726785 0,0.2525381 0.01882,0.056469 0.09965,0.073029 0.126269,0.1262691 0.01882,0.037646 -0.01331,0.086339 0,0.1262691 0.02976,0.089286 0.09651,0.1632524 0.126269,0.2525381 0.02375,0.071241 0,0.2958348 0,0.3788072 0,0.2104484 0,0.4208969 0,0.6313453 0,0.1033765 0.02727,0.5495336 0,0.6313454 -0.02976,0.089286 -0.09651,0.1632524 -0.126269,0.2525381 -0.01331,0.03993 0.01331,0.086339 0,0.1262691 -0.02976,0.089286 -0.09651,0.1632524 -0.126269,0.2525381 -0.03993,0.1197894 0.03993,0.2590179 0,0.3788072 -0.03765,0.1129385 -0.186503,0.1534846 -0.252538,0.2525382 -0.673435,1.0101521 0.462986,-0.4629866 -0.378808,0.3788072 -0.841793,0.8417939 0.631346,-0.2946279 -0.378807,0.3788072 -0.173708,0.1158057 -0.129865,0.1947977 -0.252538,0.3788067 -0.07264,0.108958 -0.28018,0.280181 -0.378807,0.378808 -0.08418,0.08418 -0.168359,0.168358 -0.252538,0.252538 -0.04209,0.04209 -0.07674,0.09325 -0.126269,0.126269 -0.07831,0.05221 -0.17423,0.07406 -0.252538,0.126269 -0.145696,0.09713 -0.233113,0.281677 -0.378808,0.378807 -0.07831,0.05221 -0.168358,0.08418 -0.252538,0.126269 -0.08418,0.04209 -0.161233,0.103443 -0.252538,0.126269 -0.08167,0.02042 -0.170872,-0.02042 -0.252538,0 -0.36621,0.09155 -0.147768,0.09851 -0.378807,0.252538 -0.429241,0.286161 -0.06772,0.01693 -0.505077,0.12627 -0.09131,0.02283 -0.1683583,0.08418 -0.2525377,0.126269 -0.084179,0.04209 -0.1683587,0.08418 -0.2525381,0.126269 -0.1683588,0.08418 -0.3484588,0.148126 -0.5050763,0.252538 -0.049527,0.03302 -0.076742,0.09325 -0.126269,0.126269 -0.5514857,0.367657 0.04162,-0.05596 -0.5050763,0.126269 -0.056469,0.01882 -0.0698,0.107446 -0.1262691,0.126269 -0.07986,0.02662 -0.1726786,-0.02662 -0.2525381,0 -0.056469,0.01882 -0.073029,0.09965 -0.1262691,0.126269 -0.037646,0.01882 -0.084179,0 -0.1262691,0 -0.04209,0 -0.084179,0 -0.126269,0"
       id="path3779"
       inkscape:connector-curvature="0" />
    <path
       style="fill:none;fill-rule:evenodd;stroke:#000000;stroke-width:1px;stroke-linecap:butt;stroke-linejoin:miter;stroke-opacity:1"
       d="m 17.172593,10.389853 c 0.04209,0.168358 0.09224,0.334906 0.126269,0.505076 0.02476,0.123817 0,0.252538 0,0.378807 0,0.252538 0,0.505076 0,0.757614 0,1.208431 -0.05647,-0.282346 0.126269,0.631346 0.02476,0.123817 0,0.252538 0,0.378807 0,0.126269 0,0.252538 0,0.378807 0,0.126269 -0.02076,0.254256 0,0.378807 0.02188,0.131289 0.104388,0.247519 0.12627,0.378808 0.02076,0.124551 0,0.252538 0,0.378807 0.04209,0.126269 0.104387,0.247519 0.126269,0.378807 0.02076,0.124551 -0.02076,0.254256 0,0.378807 0.04376,0.262577 0.200332,0.496585 0.252538,0.757615 0.01651,0.08254 -0.01651,0.169993 0,0.252538 0.0261,0.130514 0.104387,0.247519 0.126269,0.378807 0.02076,0.124551 -0.02476,0.25499 0,0.378807 0.01846,0.09229 0.103443,0.161233 0.126269,0.252538 0.02483,0.09933 0,0.626304 0,0.757615 0,0.252538 0,0.505076 0,0.757614 0,0.04209 0,0.08418 0,0.126269 0,0.04209 -0.01882,0.08862 0,0.126269 0.02662,0.05324 0.09965,0.07303 0.126269,0.126269 0.01882,0.03765 0,0.08418 0,0.126269 0,0.04209 0,0.08418 0,0.126269 0,0.04209 0.04209,0.12627 0,0.12627 -0.04209,0 0,-0.08418 0,-0.12627 0,-0.126269 0,-0.252538 0,-0.378807 0,-0.126269 0.03063,-0.256308 0,-0.378807 -0.163915,-0.655661 -0.126269,0.134798 -0.126269,-0.505076 0,-0.579029 0.02662,0.133099 -0.126269,-0.631346 -0.01651,-0.08254 0.02042,-0.170872 0,-0.252538 -0.02283,-0.09131 -0.103443,-0.161232 -0.126269,-0.252538 -0.02042,-0.08167 0,-0.168359 0,-0.252538 0,-0.210448 0.04127,-0.424984 0,-0.631345 -0.01846,-0.09229 -0.103443,-0.161233 -0.126269,-0.252538 -0.07999,-0.319937 0.05178,-0.207116 0.126269,-0.505077 0.04952,-0.198069 -0.04952,-0.433276 0,-0.631345 0.04565,-0.182611 0.206885,-0.322466 0.252538,-0.505076 0.04083,-0.163332 -0.04083,-0.341745 0,-0.505077 0.02283,-0.09131 0.103443,-0.161232 0.126269,-0.252538 0.04083,-0.163332 -0.04083,-0.341744 0,-0.505076 0.01382,-0.05526 0.341532,-0.707914 0.378807,-0.757614 0.07143,-0.09524 0.18111,-0.1573 0.252538,-0.252539 0.05647,-0.07529 0.08418,-0.168358 0.126269,-0.252538 0.04209,-0.08418 0.08418,-0.168358 0.126269,-0.252538 0.457762,-0.915524 -0.133099,0.199649 0.252539,-0.378807 0.05221,-0.07831 0.07406,-0.174229 0.126269,-0.252538 0.128736,-0.193105 0.174352,-0.0992 0.378807,-0.252538 0.09524,-0.07143 0.1573,-0.18111 0.252538,-0.252538 0.07529,-0.05647 0.174229,-0.07406 0.252538,-0.12627 0.04953,-0.03302 0.07674,-0.09325 0.126269,-0.126269 0.07831,-0.05221 0.177246,-0.0698 0.252538,-0.126269 0.09524,-0.071428 0.150456,-0.1912883 0.252538,-0.2525378 0.114132,-0.068479 0.25976,-0.066745 0.378808,-0.1262691 0.05324,-0.02662 0.0698,-0.107446 0.126269,-0.126269 0.07986,-0.02662 0.172678,0.02662 0.252538,0 0.05647,-0.018823 0.07303,-0.099649 0.126269,-0.1262691 0.03765,-0.018823 0.08862,0.018823 0.126269,0 0.05324,-0.02662 0.06675,-0.1262691 0.126269,-0.1262691 0.05952,0 0.06675,0.1262691 0.126269,0.1262691 0.04209,0 0,-0.084179 0,-0.1262691"
       id="path3781"
       inkscape:connector-curvature="0" />
    <path
       style="fill:none;fill-rule:evenodd;stroke:#000000;stroke-width:1px;stroke-linecap:butt;stroke-linejoin:miter;stroke-opacity:1"
       d="m 30.683384,9.1271619 c -0.210449,-0.04209 -0.427743,-0.058402 -0.631346,-0.1262691 -0.05647,-0.018823 -0.07303,-0.099649 -0.126269,-0.1262691 -0.05393,-0.026964 -0.581429,0 -0.631345,0 -0.08418,0 -0.172679,-0.02662 -0.252538,0 -0.91462,0.3048732 0.199076,-0.036404 -0.378807,0.2525382 -0.03765,0.018823 -0.08634,-0.01331 -0.12627,0 -0.08929,0.029762 -0.163252,0.096507 -0.252538,0.126269 -0.08685,0.028951 -0.304306,-0.037251 -0.378807,0 -0.05324,0.02662 -0.08418,0.084179 -0.126269,0.1262691 -0.04209,0.04209 -0.08418,0.084179 -0.126269,0.1262691 -0.09863,0.098627 -0.306169,0.2698496 -0.378807,0.3788072 -0.05221,0.078309 -0.0698,0.1772457 -0.126269,0.2525377 -0.107143,0.142858 -0.279754,0.230227 -0.378808,0.378808 -0.179978,0.269967 -0.260496,0.588105 -0.378807,0.883883 -0.03495,0.08738 -0.103442,0.161233 -0.126269,0.252538 -0.02042,0.08167 0.02042,0.170872 0,0.252538 -0.02283,0.09131 -0.08418,0.168359 -0.126269,0.252539 -0.04209,0.126269 -0.100166,0.248292 -0.126269,0.378807 -0.01651,0.08254 0.02042,0.170872 0,0.252538 -0.02283,0.09131 -0.107811,0.16025 -0.126269,0.252538 -0.02476,0.123817 0.02476,0.25499 0,0.378807 -0.01846,0.09229 -0.103443,0.161233 -0.126269,0.252538 -0.02042,0.08167 0,0.168359 0,0.252538 0,0.08418 0,0.168359 0,0.252539 0,0.252538 0,0.505076 0,0.757614 0,0.210448 0,0.420897 0,0.631345 0,0.08418 -0.01651,0.169994 0,0.252538 0.0261,0.130515 0.100166,0.248293 0.126269,0.378808 0.01651,0.08254 -0.02042,0.170872 0,0.252538 0.02283,0.0913 0.08418,0.168359 0.126269,0.252538 0.04209,0.126269 0.100166,0.248293 0.126269,0.378807 0.01651,0.08254 -0.02042,0.170872 0,0.252538 0.01127,0.04507 0.353945,0.732753 0.378807,0.757615 0.06655,0.06655 0.185989,0.05972 0.252538,0.126269 0.06655,0.06655 0.0698,0.177246 0.12627,0.252538 0.07143,0.09524 0.168358,0.168359 0.252538,0.252538 0.04209,0.04209 0.07674,0.09325 0.126269,0.126269 0.07831,0.05221 0.185988,0.05972 0.252538,0.126269 0.06655,0.06655 0.05972,0.185989 0.126269,0.252538 0.02486,0.02486 0.71254,0.367539 0.757614,0.378808 0.08167,0.02042 0.168359,0 0.252539,0 0.08418,0 0.168358,0 0.252538,0 0.378807,0 0.757614,0 1.136421,0 0.210449,0 0.423761,-0.0346 0.631346,0 0.131288,0.02188 0.248292,0.100166 0.378807,0.126269 0.08254,0.01651 0.168359,0 0.252538,0 0.126269,0 0.254256,0.02076 0.378807,0 0.131288,-0.02188 0.248293,-0.100167 0.378807,-0.126269 0.08255,-0.01651 0.170873,0.02042 0.252539,0 0.0913,-0.02283 0.168358,-0.08418 0.252538,-0.12627 0.08418,-0.04209 0.177245,-0.0698 0.252538,-0.126269 0.09524,-0.07143 0.1573,-0.181109 0.252538,-0.252538 0.07529,-0.05647 0.177246,-0.0698 0.252538,-0.126269 0.09524,-0.07143 0.1573,-0.181109 0.252538,-0.252538 0.07529,-0.05647 0.185989,-0.05972 0.252538,-0.126269 0.06655,-0.06655 0.08418,-0.168359 0.126269,-0.252538 0.04209,-0.08418 0.103443,-0.161233 0.126269,-0.252538 0.02042,-0.08167 -0.02042,-0.170872 0,-0.252538 0.02283,-0.09131 0.09132,-0.165155 0.12627,-0.252539 0.04943,-0.123579 0.07684,-0.255227 0.126269,-0.378807 0.03495,-0.08738 0.103442,-0.161233 0.126269,-0.252538 0.02042,-0.08167 0,-0.168359 0,-0.252538 0,-0.210448 0,-0.420897 0,-0.631345 0,-0.126269 0,-0.252539 0,-0.378808 0,-0.08418 0.02042,-0.170872 0,-0.252538 -0.02283,-0.09131 -0.103443,-0.161233 -0.126269,-0.252538 -0.02042,-0.08167 0.02042,-0.170872 0,-0.252538 -0.02283,-0.09131 -0.107812,-0.16025 -0.126269,-0.252538 -0.02476,-0.123817 0.02476,-0.25499 0,-0.378807 -0.01846,-0.09229 -0.107812,-0.160251 -0.12627,-0.252538 -0.02476,-0.123817 0.02476,-0.254991 0,-0.378808 -0.01846,-0.09229 -0.09131,-0.165154 -0.126269,-0.252538 -0.04943,-0.123579 -0.06675,-0.259759 -0.126269,-0.378807 -0.296452,-0.592904 -0.189813,-0.15886 -0.378807,-0.631345 -0.09886,-0.24716 -0.153674,-0.510456 -0.252538,-0.757615 -0.115454,-0.288634 -0.200936,-0.334893 -0.378807,-0.631345 -0.04842,-0.0807 -0.0698,-0.177246 -0.126269,-0.252538 -0.212132,-0.282843 -0.545483,-0.474772 -0.757615,-0.757615 -0.05647,-0.075292 -0.05972,-0.1859882 -0.126269,-0.2525378 -0.0081,-0.00809 -0.481556,-0.2368579 -0.505076,-0.2525381 -0.480123,-0.320082 0.625058,0.092344 -0.631345,-0.3788072 -0.162491,-0.060934 -0.340442,-0.071391 -0.505077,-0.1262691 -0.08929,-0.029762 -0.174229,-0.074063 -0.252538,-0.1262691 -0.04953,-0.033018 -0.0698,-0.107446 -0.126269,-0.126269 -0.07986,-0.02662 -0.168359,0 -0.252538,0 -0.08418,0 -0.168359,0 -0.252538,0 -0.08719,0 -0.466686,-0.019195 -0.505076,0 -0.05324,0.02662 -0.07674,0.093251 -0.126269,0.126269 -0.07831,0.052206 -0.17423,0.074063 -0.252539,0.1262691 -0.04953,0.033018 -0.07303,0.099649 -0.126269,0.1262691 -0.03765,0.018823 -0.08862,-0.018823 -0.126269,0 -0.05324,0.02662 -0.08418,0.084179 -0.126269,0.126269 -0.04209,0.04209 -0.08418,0.084179 -0.126269,0.1262691"
       id="path3783"
       inkscape:connector-curvature="0" />
    <path
       style="fill:none;fill-rule:evenodd;stroke:#000000;stroke-width:1px;stroke-linecap:butt;stroke-linejoin:miter;stroke-opacity:1"
       d="m 42.931483,9.5059691 c -0.988123,0.1470022 -0.09226,-0.4710726 -0.252538,-0.6313454 -0.02976,-0.029762 -0.09651,0.029762 -0.126269,0 -0.02976,-0.029762 0.02976,-0.096507 0,-0.126269 -0.02976,-0.029762 -0.08862,0.018823 -0.126269,0 -0.05324,-0.02662 -0.07303,-0.099649 -0.126269,-0.1262691 -0.03765,-0.018823 -0.08418,0 -0.126269,0 -0.04209,0 -0.08418,0 -0.126269,0 -0.252538,0 -0.505077,0 -0.757615,0 -0.06603,0 -0.471875,-0.016601 -0.505076,0 -0.05324,0.02662 -0.07303,0.099649 -0.126269,0.1262691 -0.03765,0.018823 -0.08862,-0.018823 -0.126269,0 -0.577884,0.2889419 0.535812,-0.052335 -0.378807,0.2525381 -0.03993,0.01331 -0.08862,-0.018823 -0.126269,0 -0.10648,0.05324 -0.1396,0.214892 -0.252538,0.2525381 -0.07986,0.02662 -0.172679,-0.02662 -0.252539,0 -0.112938,0.037646 -0.153484,0.1865024 -0.252538,0.2525382 -0.07831,0.052206 -0.174229,0.074063 -0.252538,0.126269 -0.04953,0.033018 -0.08418,0.084179 -0.126269,0.1262691 -0.04209,0.04209 -0.09325,0.076742 -0.126269,0.1262691 -0.05221,0.078309 -0.0698,0.1772457 -0.126269,0.2525377 -0.07143,0.09524 -0.199299,0.146059 -0.252538,0.252539 -0.03765,0.07529 0.02042,0.170872 0,0.252538 -0.02283,0.09131 -0.08418,0.168358 -0.126269,0.252538 -0.08418,0.168359 -0.193015,0.326505 -0.252538,0.505076 -0.01331,0.03993 0.01331,0.08634 0,0.126269 -0.02976,0.08929 -0.103443,0.161233 -0.126269,0.252538 -0.02042,0.08167 0.02042,0.170872 0,0.252538 -0.02283,0.09131 -0.08418,0.168359 -0.12627,0.252539 -0.04209,0.126269 -0.100166,0.248292 -0.126269,0.378807 -0.03302,0.165089 0.05324,0.345357 0,0.505076 -0.01882,0.05647 -0.107446,0.0698 -0.126269,0.126269 -0.02662,0.07986 0,0.168359 0,0.252538 0,0.08418 0,0.168359 0,0.252538 0,0.07048 -0.01927,0.573544 0,0.631346 0.01882,0.05647 0.09965,0.07303 0.126269,0.126269 0.01882,0.03765 0,0.08418 0,0.126269 0,0.08418 -0.02662,0.172678 0,0.252538 0.01882,0.05647 0.107446,0.0698 0.126269,0.126269 0.02662,0.07986 -0.02662,0.172679 0,0.252538 0.01882,0.05647 0.107446,0.0698 0.12627,0.126269 0.02662,0.07986 -0.02042,0.170872 0,0.252538 0.02283,0.09131 0.09651,0.163253 0.126269,0.252539 0.01331,0.03993 -0.01331,0.08634 0,0.126269 0.02976,0.08928 0.08418,0.168358 0.126269,0.252538 0.04209,0.08418 0.07406,0.174229 0.126269,0.252538 0.03302,0.04953 0.09965,0.07303 0.126269,0.126269 0.01882,0.03765 -0.02976,0.09651 0,0.126269 0.06655,0.06655 0.174229,0.07406 0.252538,0.126269 0.04953,0.03302 0.08418,0.08418 0.126269,0.126269 0.168359,0.168359 0.336718,0.336718 0.505076,0.505076 0.08418,0.08418 0.153485,0.186503 0.252538,0.252539 0.06359,0.278191 0.25976,0.06674 0.378808,0.126269 0.05324,0.02662 0.0698,0.107446 0.126269,0.126269 0.06788,0.02263 0.39817,0 0.505076,0 0.210448,0 0.420897,0 0.631345,0 0.04209,0 0.08634,0.01331 0.126269,0 0.715401,-0.357701 -0.18823,0.04706 0.505077,-0.126269 0.0913,-0.02283 0.161232,-0.103443 0.252538,-0.126269 0.08167,-0.02042 0.172678,0.02662 0.252538,0 0.05647,-0.01882 0.07674,-0.09325 0.126269,-0.126269 0.07831,-0.05221 0.163252,-0.09651 0.252538,-0.12627 0.03993,-0.01331 0.08634,0.01331 0.126269,0 0.229334,-0.07644 0.234336,-0.108067 0.378807,-0.252538"
       id="path3785"
       inkscape:connector-curvature="0" />
    <path
       style="fill:none;fill-rule:evenodd;stroke:#000000;stroke-width:1px;stroke-linecap:butt;stroke-linejoin:miter;stroke-opacity:1"
       d="m 48.866129,11.400005 c 0.339555,0.02637 0.554678,0.422775 0.883884,0.505076 0.08167,0.02042 0.168359,0 0.252538,0 0.294628,0 0.589256,0 0.883884,0 0.294627,0 0.589255,0 0.883883,0 0.08418,0 0.169993,0.01651 0.252538,0 1.373286,-0.457762 -0.332748,0.06655 0.631346,-0.126269 0.130514,-0.0261 0.248292,-0.100166 0.378807,-0.126269 0.08254,-0.01651 0.170872,0.02042 0.252538,0 0.0819,-0.02048 0.677147,-0.325162 0.757614,-0.378807 0.04953,-0.03302 0.07674,-0.09325 0.126269,-0.126269 0.07831,-0.05221 0.17423,-0.07406 0.252538,-0.126269 0.04953,-0.03302 0.07674,-0.09325 0.12627,-0.126269 0.07831,-0.05221 0.174229,-0.07406 0.252538,-0.126269 0.05251,-0.03501 0.482495,-0.459916 0.505076,-0.505077 0.01882,-0.03765 -0.01882,-0.08862 0,-0.126269 0.02662,-0.05324 0.09965,-0.07303 0.126269,-0.126269 0.01882,-0.037646 0,-0.084179 0,-0.1262687 0,-0.04209 0,-0.084179 0,-0.1262691 0,-0.04209 0.01882,-0.088623 0,-0.1262691 -0.02662,-0.05324 -0.08418,-0.084179 -0.126269,-0.126269 -0.04209,-0.04209 -0.07674,-0.093251 -0.126269,-0.1262691 -0.07831,-0.052206 -0.17423,-0.074063 -0.252538,-0.1262691 -0.09905,-0.066036 -0.153485,-0.1865024 -0.252538,-0.2525381 -0.07831,-0.052206 -0.17423,-0.074063 -0.252539,-0.1262691 -0.145695,-0.09713 -0.233112,-0.2816771 -0.378807,-0.3788072 -0.07831,-0.052206 -0.168358,-0.084179 -0.252538,-0.126269 -0.08418,-0.04209 -0.161233,-0.1034428 -0.252538,-0.1262691 -0.08167,-0.020416 -0.170872,0.020417 -0.252538,0 -0.182611,-0.045653 -0.322466,-0.2068855 -0.505076,-0.2525382 -0.08167,-0.020417 -0.169994,0.016509 -0.252539,0 -0.253566,0.028976 -0.411452,-0.197565 -0.631345,-0.2525381 -0.08167,-0.020416 -0.172678,0.02662 -0.252538,0 -0.05647,-0.018823 -0.0698,-0.107446 -0.126269,-0.1262691 -0.06961,-0.023203 -0.650457,0 -0.757615,0 -0.252538,0 -0.505076,0 -0.757614,0 -0.08418,0 -0.170872,-0.020416 -0.252538,0 -0.09131,0.022826 -0.161233,0.1034428 -0.252538,0.1262691 -0.08167,0.020417 -0.170872,-0.020416 -0.252538,0 -0.09131,0.022826 -0.168359,0.084179 -0.252538,0.1262691 -0.08418,0.04209 -0.17423,0.074063 -0.252539,0.126269 -0.04953,0.033018 -0.07674,0.093251 -0.126269,0.1262691 -0.07831,0.052206 -0.168358,0.084179 -0.252538,0.1262691 -0.168359,0.084179 -0.348459,0.1481265 -0.505076,0.2525381 -0.04953,0.033018 -0.08418,0.084179 -0.126269,0.1262691 -0.126269,0.1262691 -0.252538,0.2525381 -0.378807,0.3788072 -0.04209,0.04209 -0.08418,0.084179 -0.126269,0.1262691 -0.04209,0.04209 -0.09965,0.073029 -0.126269,0.126269 -0.01882,0.037646 0.01882,0.088623 0,0.1262691 -0.02662,0.05324 -0.107446,0.0698 -0.12627,0.1262691 -0.02662,0.079859 0.02662,0.1726785 0,0.2525381 -0.01882,0.056469 -0.107446,0.0698 -0.126269,0.1262691 -0.0028,0.00829 -0.0028,0.6230537 0,0.6313457 0.01882,0.05647 0.107446,0.0698 0.126269,0.126269 0.05324,0.159719 -0.04083,0.341744 0,0.505076 0.02283,0.09131 0.103443,0.161233 0.12627,0.252538 0.02042,0.08167 -0.02042,0.170872 0,0.252538 0.04565,0.182611 0.206885,0.322466 0.252538,0.505077 0.109339,0.437357 -0.159892,0.07583 0.126269,0.505076 0.03302,0.04953 0.09325,0.07674 0.126269,0.126269 0.104411,0.156617 0.139599,0.354491 0.252538,0.505076 0.07143,0.09524 0.181109,0.1573 0.252538,0.252538 0.05647,0.07529 0.07406,0.17423 0.126269,0.252538 0.03302,0.04953 0.09325,0.07674 0.126269,0.126269 0.05221,0.07831 0.07406,0.17423 0.126269,0.252539 0.03302,0.04953 0.09965,0.07303 0.126269,0.126269 0.01882,0.03765 0,0.08418 0,0.126269 0.04209,0.08418 0.07406,0.174229 0.126269,0.252538 0.06604,0.09905 0.168359,0.168359 0.252539,0.252538 0.08087,0.08087 0.386911,0.4263 0.505076,0.505076 0.07831,0.05221 0.174229,0.07406 0.252538,0.126269 0.145695,0.09713 0.233112,0.281678 0.378807,0.378808 0.07831,0.05221 0.17423,0.07406 0.252538,0.126269 0.04953,0.03302 0.07674,0.09325 0.126269,0.126269 0.156618,0.104411 0.348459,0.148126 0.505077,0.252538 0.04953,0.03302 0.0698,0.107446 0.126269,0.126269 0.07986,0.02662 0.170872,-0.02042 0.252538,0 0.0913,0.02283 0.16025,0.107811 0.252538,0.126269 0.122546,0.02451 0.860322,0 1.010153,0 0.294627,0 0.589255,0 0.883883,0 0.08418,0 0.170872,0.02042 0.252538,0 0.09131,-0.02283 0.161233,-0.103443 0.252538,-0.126269 0.08167,-0.02042 0.170872,0.02042 0.252538,0 0.09131,-0.02283 0.163253,-0.09651 0.252539,-0.126269 0.03993,-0.01331 0.08634,0.01331 0.126269,0 0.178571,-0.05952 0.322465,-0.206886 0.505076,-0.252538 0.08167,-0.02042 0.172678,0.02662 0.252538,0 0.112939,-0.03765 0.146059,-0.199299 0.252538,-0.252538 0.07529,-0.03765 0.177246,0.03765 0.252538,0 0.312062,-0.156031 -0.04359,-0.12627 0.252538,-0.12627"
       id="path3787"
       inkscape:connector-curvature="0" />
    <path
       style="fill:none;fill-rule:evenodd;stroke:#000000;stroke-width:1px;stroke-linecap:butt;stroke-linejoin:miter;stroke-opacity:1"
       d="m 63.513341,7.9907402 c 0.271362,-0.5427224 0.252539,-0.3168454 0.252539,-0.6313453 0,-0.04209 0.01882,-0.088623 0,-0.1262691 -0.02662,-0.05324 -0.09965,-0.073029 -0.12627,-0.126269 -0.01882,-0.037646 0.02976,-0.096507 0,-0.1262691 -0.02976,-0.029762 -0.08862,0.018823 -0.126269,0 -0.05324,-0.02662 -0.07303,-0.099649 -0.126269,-0.1262691 -0.06695,-0.033476 -0.545444,0.028634 -0.631345,0 -0.05647,-0.018823 -0.0698,-0.107446 -0.126269,-0.126269 -0.119789,-0.03993 -0.252538,0 -0.378807,0 -0.04209,0 -0.08862,-0.018823 -0.126269,0 -0.05324,0.02662 -0.08418,0.084179 -0.126269,0.126269 -0.09863,0.098627 -0.26985,0.3061688 -0.378808,0.3788072 -0.07831,0.052206 -0.174229,0.074063 -0.252538,0.1262691 -0.04953,0.033018 -0.07674,0.093251 -0.126269,0.1262691 -0.07831,0.052206 -0.174229,0.074063 -0.252538,0.126269 -0.04953,0.033018 -0.07303,0.099649 -0.126269,0.1262691 -0.03765,0.018823 -0.09651,-0.029762 -0.126269,0 -0.02976,0.029762 0.01882,0.088623 0,0.1262691 -0.02662,0.05324 -0.08418,0.084179 -0.126269,0.126269 -0.04209,0.04209 -0.07674,0.093251 -0.126269,0.1262691 -0.06359,0.2781914 -0.25976,0.066745 -0.378807,0.1262691 -0.05324,0.02662 -0.08418,0.084179 -0.12627,0.1262691 -0.04209,0.04209 -0.09965,0.073029 -0.126269,0.126269 -0.01882,0.037646 0.01882,0.088623 0,0.1262691 -0.02662,0.05324 -0.09965,0.073029 -0.126269,0.1262691 -0.01882,0.037646 0.01882,0.088623 0,0.126269 -0.02662,0.05324 -0.09965,0.073029 -0.126269,0.1262691 -0.05051,0.1010152 0.05051,0.2777919 0,0.3788072 -0.02662,0.05324 -0.09965,0.073029 -0.126269,0.1262691 -0.01882,0.037646 0,0.084179 0,0.126269 0,0.04209 -0.01882,0.088623 0,0.1262691 0.02662,0.05324 0.09965,0.073029 0.126269,0.1262691 0.03765,0.075292 -0.05952,0.1930147 0,0.2525377 0.02976,0.02976 0.08862,-0.01882 0.126269,0 0.05324,0.02662 0.07303,0.09965 0.126269,0.126269 0.03765,0.01882 0.08862,-0.01882 0.126269,0 0.05324,0.02662 0.0698,0.107446 0.12627,0.12627 0.0578,0.01927 0.560867,0 0.631345,0 0.04209,0 0.08634,-0.01331 0.126269,0 0.08929,0.02976 0.158423,0.126269 0.252538,0.126269 0.09411,0 0.163253,-0.09651 0.252538,-0.126269 0.03993,-0.01331 0.08418,0 0.126269,0 0.105737,0 0.535322,-0.02401 0.631346,0 0.09131,0.02283 0.161232,0.103442 0.252538,0.126269 0.08545,0.02136 0.802628,0 0.883883,0 0.08418,0 0.170872,-0.02042 0.252538,0 0.09131,0.02283 0.161233,0.103442 0.252539,0.126269 0.08167,0.02042 0.172678,-0.02662 0.252538,0 0.05647,0.01882 0.07674,0.09325 0.126269,0.126269 0.07831,0.05221 0.174229,0.07406 0.252538,0.126269 0.185801,0.123868 0.319275,0.381208 0.505076,0.505076 0.18401,0.122673 0.263002,0.07883 0.378807,0.252538 0.05221,0.07831 0.07406,0.17423 0.126269,0.252538 0.154027,0.23104 0.160986,0.0126 0.252539,0.378808 0.02042,0.08167 -0.02662,0.172678 0,0.252538 0.01882,0.05647 0.107446,0.0698 0.126269,0.126269 0.02662,0.07986 -0.02042,0.170872 0,0.252538 0.01459,0.05838 0.184628,0.262088 0.126269,0.378807 -0.02662,0.05324 -0.107446,0.0698 -0.126269,0.126269 -0.07986,0.11331 0.03993,0.259018 0,0.378807 -0.02976,0.08929 -0.07406,0.17423 -0.126269,0.252539 -0.03501,0.05251 -0.459916,0.482495 -0.505077,0.505076 -0.03765,0.01882 -0.09125,-0.02335 -0.126269,0 -0.14858,0.09905 -0.230227,0.279753 -0.378807,0.378807 -0.07831,0.05221 -0.174229,0.07406 -0.252538,0.126269 -0.04953,0.03302 -0.07674,0.09325 -0.126269,0.126269 -0.222093,0.148062 -0.374668,0.149867 -0.631346,0.252538 -0.174767,0.06991 -0.336717,0.168359 -0.505076,0.252538 -0.08418,0.04209 -0.161233,0.103443 -0.252538,0.126269 -0.08167,0.02042 -0.170872,-0.02042 -0.252538,0 -0.0913,0.02283 -0.161233,0.103443 -0.252538,0.12627 -0.08167,0.02042 -0.172679,-0.02662 -0.252538,0 -0.05647,0.01882 -0.0698,0.107446 -0.126269,0.126269 -0.0578,0.01927 -0.560868,0 -0.631346,0 -0.08418,0 -0.168359,0 -0.252538,0 -0.04209,0 -0.08862,0.01882 -0.126269,0 -0.05324,-0.02662 -0.07303,-0.09965 -0.126269,-0.126269 -0.03765,-0.01882 -0.08862,0.01882 -0.126269,0 -0.05324,-0.02662 -0.07303,-0.09965 -0.126269,-0.12627 -0.03765,-0.01882 -0.08862,0.01882 -0.126269,0 -0.05324,-0.02662 -0.07303,-0.09965 -0.126269,-0.126269 -0.371586,-0.185792 0.166243,0.292513 -0.252538,-0.126269"
       id="path3789"
       inkscape:connector-curvature="0" />
    <path
       style="fill:none;fill-rule:evenodd;stroke:#000000;stroke-width:1px;stroke-linecap:butt;stroke-linejoin:miter;stroke-opacity:1"
       d="m 73.993674,6.2229733 c -0.04209,-0.1683588 -0.04866,-0.3498572 -0.126269,-0.5050763 -0.0087,-0.0173 -0.373892,0 -0.505076,0 -0.252538,0 -0.505077,0 -0.757615,0 -0.04302,0 -0.436738,-0.022779 -0.505076,0 -0.08929,0.029762 -0.163252,0.096507 -0.252538,0.1262691 -0.03993,0.01331 -0.08862,-0.018823 -0.126269,0 -0.05324,0.02662 -0.07674,0.093251 -0.126269,0.1262691 -0.07831,0.052206 -0.17423,0.074063 -0.252538,0.126269 -0.578457,0.3856374 0.536717,-0.2052239 -0.378808,0.2525382 -0.08418,0.04209 -0.168358,0.084179 -0.252538,0.126269 -0.08418,0 -0.172678,-0.02662 -0.252538,0 -0.05647,0.018823 -0.07674,0.093251 -0.126269,0.1262691 -0.07831,0.052206 -0.185988,0.059719 -0.252538,0.1262691 -0.06655,0.06655 -0.07406,0.1742293 -0.126269,0.2525381 -0.03302,0.049527 -0.09325,0.076742 -0.126269,0.1262691 -0.305778,0.4586667 0.03698,0.089293 -0.252538,0.3788072 -0.126269,0.126269 -0.252538,0.2525381 -0.378808,0.3788072 -0.04209,0.04209 -0.08418,0.084179 -0.126269,0.126269 -0.04209,0.04209 -0.107446,0.0698 -0.126269,0.1262691 -0.02662,0.07986 0.02662,0.1726786 0,0.2525382 -0.01882,0.056469 -0.09965,0.073029 -0.126269,0.126269 -0.01772,0.035432 -0.01772,0.4696446 0,0.5050763 0.02662,0.05324 0.08418,0.084179 0.126269,0.1262691 0.300393,0.3003926 0.158775,0.010835 0.505077,0.126269 0.05647,0.018823 0.08418,0.084179 0.126269,0.1262691 0.08418,0.04209 0.161232,0.1034427 0.252538,0.1262691 0.163332,0.040833 0.341744,-0.040833 0.505076,0 0.0913,0.022826 0.16025,0.1078115 0.252538,0.126269 0.206362,0.041272 0.427181,-0.051041 0.631346,0 0.09131,0.022826 0.161232,0.1034428 0.252538,0.1262691 0.163332,0.040833 0.341744,-0.040833 0.505076,0 0.0913,0.022826 0.168359,0.084179 0.252538,0.1262691 0.126269,0 0.25499,-0.024763 0.378807,0 0.184576,0.036915 0.322466,0.2068857 0.505077,0.2525377 0.899439,0.22486 -0.639714,-0.382154 0.631345,0.126269 0.174768,0.06991 0.322465,0.206886 0.505076,0.252539 0.08167,0.02042 0.177246,-0.03765 0.252538,0 0.10648,0.05324 0.168359,0.168358 0.252538,0.252538 0.08418,0.08418 0.186503,0.153484 0.252539,0.252538 0.06661,0.09992 0.341648,0.646138 0.378807,0.757614 0.01331,0.03993 -0.01021,0.08544 0,0.126269 0.03228,0.129126 0.100166,0.248293 0.126269,0.378808 0.01651,0.08254 0,0.168358 0,0.252538 0,0.210448 0,0.420897 0,0.631345 0,0.103377 0.02727,0.549534 0,0.631345 -0.02976,0.08929 -0.09651,0.163253 -0.126269,0.252539 -0.01331,0.03993 0.01882,0.08862 0,0.126269 -0.139594,0.279187 -0.07837,0.03918 -0.252538,0.126269 -0.05324,0.02662 -0.07303,0.09965 -0.126269,0.126269 -0.03765,0.01882 -0.08634,-0.01331 -0.126269,0 -0.08929,0.02976 -0.160251,0.107811 -0.252539,0.126269 -0.123817,0.02476 -0.25499,-0.02476 -0.378807,0 -0.09229,0.01846 -0.165154,0.09131 -0.252538,0.126269 -0.12358,0.04943 -0.255228,0.07684 -0.378807,0.126269 -0.08738,0.03495 -0.160251,0.107811 -0.252538,0.126269 -0.123817,0.02476 -0.25499,-0.02476 -0.378807,0 -0.09229,0.01846 -0.165155,0.09131 -0.252539,0.126269 -0.123579,0.04943 -0.255227,0.07684 -0.378807,0.126269 -0.336717,0.134687 -0.212563,0.168782 -0.631345,0.252538 -0.08255,0.01651 -0.169994,-0.01651 -0.252538,0 -0.130515,0.0261 -0.248293,0.100166 -0.378808,0.126269 -0.08254,0.01651 -0.170872,-0.02042 -0.252538,0 -0.0913,0.02283 -0.161232,0.103443 -0.252538,0.126269 -0.08167,0.02042 -0.168359,0 -0.252538,0 -0.08418,0 -0.168359,0 -0.252538,0 -0.462987,0 -0.925973,0 -1.38896,0"
       id="path3791"
       inkscape:connector-curvature="0" />
    <path
       style="fill:none;fill-rule:evenodd;stroke:#000000;stroke-width:1px;stroke-linecap:butt;stroke-linejoin:miter;stroke-opacity:1"
       d="m 79.675782,14.935539 c -0.226838,0.33536 0.252538,0.491416 0.252538,0.757614 0,0.01486 -0.360238,-0.01857 -0.378807,0 -0.02976,0.02976 0.02976,0.09651 0,0.126269 -0.02976,0.02976 -0.09651,0.02976 -0.126269,0 -0.02976,-0.02976 0,-0.08418 0,-0.126269 0,-0.04209 -0.01331,-0.08634 0,-0.126269 0.07168,-0.215028 0.307511,-0.411453 0.252538,-0.631345 -0.03228,-0.129125 -0.268062,0.200099 -0.378807,0.126269 -0.0021,-0.0014 0,-0.871329 0,-1.136422 0,-0.925973 0,-1.851946 0,-2.777919 0,-0.378807 0,-0.757614 0,-1.136422 0,-0.2104481 -0.02094,-0.421941 0,-0.631345 0.02135,-0.2135511 0.102569,-0.4180418 0.126269,-0.6313453 0.179923,-1.619308 -0.262376,0.8068023 0.126269,-1.1364217 0.04209,-0.2104484 0.07971,-0.4218398 0.126269,-0.6313453 0.03765,-0.1694077 0.104744,-0.3328761 0.126269,-0.5050763 0.02088,-0.1670586 -0.02088,-0.3380176 0,-0.5050762 0.104608,-0.8368641 0.112763,-0.1850066 0.252538,-0.8838835 0.01651,-0.082545 -0.01651,-0.1699935 0,-0.2525382 0.0261,-0.1305145 0.09399,-0.2496819 0.126269,-0.3788072 0.01021,-0.040833 -0.01331,-0.086339 0,-0.126269 0.02976,-0.089286 0.09651,-0.1632525 0.126269,-0.2525382 0.01638,-0.049134 -0.01959,-0.3592119 0,-0.3788072 0.02976,-0.029762 0.09651,0.029762 0.12627,0 0.02976,-0.029762 -0.02976,-0.096507 0,-0.126269 0.0929,-0.092897 0.227882,0.1016135 0.252538,0.126269 0.04209,0.04209 0.08418,0.084179 0.126269,0.1262691 0.04209,0.04209 0.07303,0.099649 0.126269,0.1262691 0.03765,0.018823 0.08862,-0.018823 0.126269,0 0.02166,0.010831 0.373578,0.3631212 0.378807,0.3788072 0.02662,0.07986 -0.02042,0.1708721 0,0.2525381 0.04565,0.1826107 0.206886,0.3224656 0.252538,0.5050763 0.02042,0.081666 -0.01651,0.1699934 0,0.2525381 0.08376,0.4187818 0.117851,0.2946278 0.252538,0.6313454 0.232219,0.5805455 0.02032,0.1770688 0.252539,0.7576144 0.03495,0.087384 0.09131,0.1651541 0.126269,0.2525381 0.118311,0.2957777 0.198828,0.6139159 0.378807,0.8838835 0.03302,0.049527 0.107446,0.0698 0.126269,0.126269 0.02662,0.07986 -0.02662,0.1726786 0,0.2525382 0.01882,0.056469 0.09965,0.073029 0.126269,0.1262691 0.01882,0.037646 -0.01882,0.088623 0,0.126269 0.01644,0.032874 0.165453,0.2133542 0.252538,0.1262691 0.02976,-0.029762 -0.01882,-0.088623 0,-0.1262691 0.02662,-0.05324 0.107446,-0.0698 0.126269,-0.126269 0.02662,-0.07986 -0.02662,-0.1726786 0,-0.2525382 0.01882,-0.056469 0.08418,-0.084179 0.126269,-0.1262691 0,-0.084179 -0.01651,-0.1699934 0,-0.2525381 0.0261,-0.1305146 0.104388,-0.2475189 0.126269,-0.3788072 0.02076,-0.124551 -0.02476,-0.2549902 0,-0.3788072 0.01846,-0.092288 0.08418,-0.1683588 0.126269,-0.2525381 0.04209,-0.1683588 0.101727,-0.3332802 0.126269,-0.5050763 0.01786,-0.125 -0.02076,-0.2542562 0,-0.3788072 0.02188,-0.1312883 0.08418,-0.2525382 0.126269,-0.3788072 0.08418,-0.2525382 0.168359,-0.5050763 0.252539,-0.7576144 0.08418,-0.2525382 0.168358,-0.5050763 0.252538,-0.7576144 0.04209,-0.1262691 0.06674,-0.2597596 0.126269,-0.3788072 0.06787,-0.1357352 0.18467,-0.2430721 0.252538,-0.3788073 0.05952,-0.1190476 0.05779,-0.2646755 0.126269,-0.3788072 0.06125,-0.1020824 0.18111,-0.1573 0.252538,-0.2525381 0.112939,-0.1505846 0.148127,-0.3484588 0.252538,-0.5050763 0.03302,-0.049527 0.09965,-0.073029 0.126269,-0.126269 0.03773,-0.075462 -0.08312,-0.2525382 0.126269,-0.2525382 0.04209,0 -0.01331,0.086339 0,0.1262691 0.02976,0.089286 0.09651,0.1632524 0.126269,0.2525381 0.01331,0.03993 -0.01331,0.086339 0,0.1262691 0.02976,0.089286 0.103443,0.1612328 0.12627,0.2525381 0.02042,0.081666 0,0.1683588 0,0.2525382 0,0.084179 0,0.1683587 0,0.2525381 0,0.2946278 0,0.5892557 0,0.8838835 0,0.084179 -0.02042,0.1708721 0,0.2525381 0.02283,0.091305 0.107811,0.1602504 0.126269,0.2525382 0.02476,0.123817 0,0.2525381 0,0.3788072 0,0.126269 0,0.2525381 0,0.3788072 0,0.1683587 -0.02381,0.3384096 0,0.5050762 0.01882,0.1317616 0.107446,0.2470457 0.126269,0.3788073 0.02381,0.1666666 -0.02088,0.3380176 0,0.5050762 0.02152,0.1722002 0.08418,0.3367175 0.126269,0.5050763 0.04209,0.2104484 0.102568,0.4180418 0.126269,0.6313453 0.01859,0.1673291 -0.04083,0.3417443 0,0.5050763 0.04565,0.1826107 0.186446,0.3288303 0.252538,0.5050763 0.24237,0.6463209 0.05325,0.3529639 0.126269,1.0101525 -7.02e-4,0.3955919 0.204407,0.7513709 0.252538,1.1364219 0.02088,0.167058 -0.02088,0.338017 0,0.505076 0.02152,0.1722 0.08418,0.336718 0.126269,0.505076 0.04209,0.168359 0.08418,0.336718 0.126269,0.505077 0.04209,0.168358 0.101727,0.33328 0.126269,0.505076 0.01786,0.125 -0.02076,0.254256 0,0.378807 0.03901,0.234047 0.149494,0.425255 0.252539,0.631345 0.04209,0.08418 0.103442,0.161233 0.126269,0.252539 0.02042,0.08167 -0.02662,0.172678 0,0.252538 0.01882,0.05647 0.09965,0.07303 0.126269,0.126269 0.01882,0.03765 -0.01882,0.08862 0,0.126269 0.02662,0.05324 0.09965,0.07303 0.126269,0.126269 0.185793,0.371586 -0.292513,-0.166244 0.126269,0.252538"
       id="path3799"
       inkscape:connector-curvature="0" />
    <path
       style="fill:none;fill-rule:evenodd;stroke:#000000;stroke-width:1px;stroke-linecap:butt;stroke-linejoin:miter;stroke-opacity:1"
       d="m 96.343299,7.9907402 c -0.377441,-0.1594323 -0.743744,-0.126269 -1.136421,-0.126269 -0.08418,0 -0.170873,-0.020416 -0.252539,0 -0.09131,0.022826 -0.163252,0.096507 -0.252538,0.126269 -0.119789,0.03993 -0.256308,-0.030625 -0.378807,0 -0.0913,0.022826 -0.168359,0.084179 -0.252538,0.1262691 -0.08418,0.04209 -0.174229,0.074063 -0.252538,0.1262691 -0.04953,0.033018 -0.07674,0.093251 -0.126269,0.1262691 -0.233112,0.155408 -0.524503,0.2233991 -0.757615,0.3788072 -0.04953,0.033018 -0.07674,0.093251 -0.126269,0.126269 -0.294888,0.1965922 -0.715264,0.3084841 -1.010152,0.5050763 -0.04953,0.033018 -0.08418,0.084179 -0.126269,0.1262691 -0.08418,0.084179 -0.168359,0.1683587 -0.252539,0.2525381 -0.04209,0.04209 -0.09325,0.076742 -0.126269,0.1262691 -0.05221,0.078309 -0.07406,0.1742297 -0.126269,0.2525377 -0.09905,0.148581 -0.271664,0.23595 -0.378807,0.378808 -0.05647,0.07529 -0.08418,0.168358 -0.126269,0.252538 -0.08418,0.168359 -0.168359,0.336717 -0.252538,0.505076 -0.08418,0.168359 -0.168359,0.336718 -0.252538,0.505076 -0.04209,0.08418 -0.103443,0.161233 -0.126269,0.252538 -0.02042,0.08167 0,0.168359 0,0.252539 0,0.08418 0,0.168358 0,0.252538 0,0.08418 0,0.168358 0,0.252538 0,0.04209 -0.01331,0.08634 0,0.126269 0.106064,0.318194 0.402921,0.529191 0.631345,0.757614 0.04209,0.04209 0.09325,0.07674 0.126269,0.126269 0.05221,0.07831 0.07406,0.17423 0.126269,0.252539 0.03302,0.04953 0.08418,0.08418 0.126269,0.126269 0.04209,0.04209 0.07303,0.09965 0.126269,0.126269 0.03765,0.01882 0.08634,-0.01331 0.126269,0 0.08929,0.02976 0.163253,0.09651 0.252539,0.126269 0.03993,0.01331 0.08418,0 0.126269,0 0.08418,0 0.168358,0 0.252538,0 0.105736,0 0.535322,0.02401 0.631345,0 0.0819,-0.02048 0.677147,-0.325162 0.757615,-0.378807 0.04953,-0.03302 0.07674,-0.09325 0.126269,-0.12627 0.156617,-0.104411 0.354491,-0.139599 0.505076,-0.252538 0.09524,-0.07143 0.1573,-0.181109 0.252538,-0.252538 0.07529,-0.05647 0.185988,-0.05972 0.252538,-0.126269 0.06655,-0.06655 0.08418,-0.168359 0.126269,-0.252538 0.08418,-0.08418 0.168359,-0.168359 0.252538,-0.252538 0.252538,-0.252538 0.505077,-0.505076 0.757615,-0.757615 0.08418,-0.08418 0.181109,-0.1573 0.252538,-0.252538 0.12691,-0.169213 0.17978,-0.44945 0.252538,-0.631345 0.134687,-0.336718 0.168782,-0.212564 0.252538,-0.631345 0.01651,-0.08254 -0.02042,-0.170873 0,-0.252539 0.02283,-0.09131 0.103443,-0.161232 0.126269,-0.252538 0.0327,-0.1308007 0,-0.3602879 0,-0.5050759 0,-0.084179 0,-0.1683588 0,-0.2525382 0,-0.04209 -0.01882,-0.088623 0,-0.126269 0.156031,-0.312062 0.126269,0.043585 0.126269,-0.2525382 0,-0.084179 0,-0.1683587 0,-0.2525381 0,-0.04209 -0.04209,-0.1262691 0,-0.1262691 0.08418,0 -0.03765,0.1772458 0,0.2525382 0.02662,0.05324 0.107446,0.0698 0.126269,0.126269 0.02662,0.07986 0,0.1683588 0,0.2525382 0,0.04209 -0.01882,0.088623 0,0.126269 0.02662,0.05324 0.107446,0.0698 0.126269,0.1262691 0.03993,0.1197894 -0.03993,0.2590178 0,0.3788072 0.04209,0.084179 0.08418,0.1683588 0.12627,0.2525378 0,0.08418 -0.02662,0.172679 0,0.252538 0.01882,0.05647 0.107445,0.0698 0.126269,0.12627 0.02662,0.07986 -0.01651,0.169993 0,0.252538 -0.02898,0.253566 0.197565,0.411453 0.252538,0.631345 0.02042,0.08167 -0.02042,0.170872 0,0.252538 0.02283,0.09131 0.08418,0.168359 0.126269,0.252538 0.04209,0.126269 0.100166,0.248293 0.126269,0.378808 0.03302,0.165089 0,0.336717 0,0.505076 0,0.04209 -0.01331,0.08634 0,0.126269 0.304873,0.914619 -0.0364,-0.199077 0.252538,0.378807 0.01882,0.03765 -0.01882,0.08862 0,0.126269 0.07576,0.151523 0.303046,0.227284 0.378807,0.378807 0.01882,0.03765 -0.01882,0.08862 0,0.126269 0.05324,0.10648 0.199299,0.146059 0.252538,0.252539 0.01882,0.03765 -0.02976,0.09651 0,0.126269 0.02976,0.02976 0.08418,0 0.126269,0"
       id="path3801"
       inkscape:connector-curvature="0" />
    <path
       style="fill:none;fill-rule:evenodd;stroke:#000000;stroke-width:1px;stroke-linecap:butt;stroke-linejoin:miter;stroke-opacity:1"
       d="m 102.90929,6.0967042 c -0.10468,0.039454 0.0491,0.8136987 0,1.0101526 -0.0228,0.091305 -0.10781,0.1602504 -0.12627,0.2525381 -0.0413,0.2063617 0.0413,0.4249837 0,0.6313453 -0.0261,0.1305146 -0.10744,0.2470457 -0.12627,0.3788073 -0.0417,0.2916666 0.0484,0.5932643 0,0.8838834 -0.0219,0.1312884 -0.10744,0.2470457 -0.12627,0.3788072 -0.0476,0.3333334 0.0372,0.6754949 0,1.0101529 -0.0237,0.213303 -0.10257,0.418042 -0.12627,0.631345 -0.0186,0.167329 0,0.336718 0,0.505076 0,0.378808 0,0.757615 0,1.136422 0,0.168359 0.0238,0.33841 0,0.505076 -0.0188,0.131762 -0.10744,0.247046 -0.12626,0.378807 -0.0238,0.166667 0,0.336718 0,0.505077 0,0.420897 0,0.841793 0,1.26269 0,0.168359 0,0.336718 0,0.505077 0,0.04209 -0.0421,0.126269 0,0.126269 0.15603,0 0.12626,-0.177076 0.12626,-0.252538 0,-0.07048 -0.0193,-0.573544 0,-0.631346 0.0188,-0.05647 0.10745,-0.0698 0.12627,-0.126269 0.0532,-0.159719 -0.0532,-0.345357 0,-0.505076 0.0188,-0.05647 0.10745,-0.0698 0.12627,-0.126269 0.0266,-0.07986 -0.0204,-0.170872 0,-0.252538 0.0228,-0.09131 0.10345,-0.161233 0.12627,-0.252538 0.0204,-0.08167 -0.0204,-0.170873 0,-0.252539 0.0228,-0.09131 0.10781,-0.16025 0.12627,-0.252538 0.0248,-0.123817 -0.0248,-0.25499 0,-0.378807 0.0185,-0.09229 0.10344,-0.161233 0.12627,-0.252538 0.0204,-0.08167 -0.0165,-0.169994 0,-0.252538 0.0261,-0.130515 0.10017,-0.248293 0.12627,-0.378807 0.0165,-0.08254 -0.0313,-0.17438 0,-0.252539 0.0564,-0.140902 0.17446,-0.248677 0.25254,-0.378807 0.0968,-0.161406 0.18263,-0.330308 0.25254,-0.505076 0.0494,-0.12358 0.0768,-0.255228 0.12626,-0.378807 0.0699,-0.174768 0.16836,-0.336718 0.25254,-0.505077 0.0421,-0.08418 0.0842,-0.168358 0.12627,-0.252538 0.0421,-0.084179 0.0597,-0.1859882 0.12627,-0.2525378 0.0666,-0.06655 0.17423,-0.074063 0.25254,-0.1262691 0.1858,-0.1238677 0.31927,-0.3812085 0.50507,-0.5050762 0.0783,-0.052206 0.18599,-0.05972 0.25254,-0.1262691 0.0665,-0.06655 0.0597,-0.1859885 0.12627,-0.2525381 0.008,-0.00809 0.48156,-0.236858 0.50508,-0.2525382 0.099,-0.066036 0.15348,-0.1865024 0.25254,-0.2525381 0.0783,-0.052206 0.16325,-0.096507 0.25253,-0.1262691 0.0399,-0.01331 0.0965,0.029762 0.12627,0 0.16836,-0.1683587 -0.21044,-0.1262691 0.12627,-0.1262691"
       id="path3803"
       inkscape:connector-curvature="0" />
    <path
       style="fill:none;fill-rule:evenodd;stroke:#000000;stroke-width:1px;stroke-linecap:butt;stroke-linejoin:miter;stroke-opacity:1"
       d="m 103.16183,11.273736 c 0.57759,-0.03397 0.44897,-0.0561 0.75761,0.252538 0.0421,0.04209 0.0997,0.07303 0.12627,0.126269 0.0188,0.03765 -0.0188,0.08862 0,0.126269 0.0266,0.05324 0.0842,0.08418 0.12627,0.126269 0.0842,0.08418 0.16836,0.168359 0.25254,0.252539 0.0421,0.04209 0.0932,0.07674 0.12627,0.126269 0.0157,0.02352 0.24445,0.496985 0.25254,0.505076 0.0665,0.06655 0.18599,0.05972 0.25253,0.126269 0.0666,0.06655 0.0698,0.177246 0.12627,0.252538 0.10715,0.142857 0.27976,0.230227 0.37881,0.378807 0.0522,0.07831 0.0698,0.177246 0.12627,0.252538 0.68119,0.908251 -0.14021,-0.266475 0.50508,0.378808 0.1331,0.133099 0.11944,0.371977 0.25253,0.505076 0.0665,0.06655 0.18599,0.05972 0.25254,0.126269 0.0665,0.06655 0.0842,0.168359 0.12627,0.252538 0.0421,0.08418 0.0965,0.163252 0.12627,0.252538 0.0133,0.03993 -0.0188,0.08862 0,0.126269 0.0532,0.10648 0.1993,0.146059 0.25254,0.252538 0.0188,0.03765 -0.0188,0.08862 0,0.126269 0.15118,0.302364 0.25254,-0.07957 0.25254,0.252539"
       id="path3805"
       inkscape:connector-curvature="0" />
    <path
       style="fill:none;fill-rule:evenodd;stroke:#000000;stroke-width:1px;stroke-linecap:butt;stroke-linejoin:miter;stroke-opacity:1"
       d="m 112.12693,10.516122 c -0.13452,0.672617 -0.12627,0.416729 -0.12627,0.757614 0,0.04209 -0.0298,0.09651 0,0.126269 0.0298,0.02976 0.0886,-0.01882 0.12627,0 0.0532,0.02662 0.073,0.09965 0.12627,0.126269 0.14806,0.07403 0.14987,-0.07493 0.25254,-0.126269 0.0376,-0.01882 0.0842,0 0.12627,0 0.0842,-0.04209 0.17423,-0.07406 0.25254,-0.126269 0.0495,-0.03302 0.0842,-0.08418 0.12627,-0.126269 0.0842,-0.04209 0.17423,-0.07406 0.25253,-0.126269 0.0495,-0.03302 0.0768,-0.09325 0.12627,-0.126269 0.15662,-0.104412 0.34846,-0.148127 0.50508,-0.252538 0.14858,-0.09905 0.23595,-0.271665 0.37881,-0.378808 0.0753,-0.05647 0.18599,-0.05972 0.25254,-0.126269 0.0665,-0.06655 0.0741,-0.174229 0.12626,-0.2525377 0.066,-0.099054 0.18651,-0.1534846 0.25254,-0.2525382 0.0522,-0.078309 0.0741,-0.1742294 0.12627,-0.2525381 0.066,-0.099054 0.21489,-0.1395997 0.25254,-0.2525381 0,-0.5748128 -0.0595,-0.00722 0.12627,-0.3788072 0.0188,-0.037646 0,-0.084179 0,-0.1262691 0,-0.04209 0.0188,-0.088623 0,-0.1262691 -0.0266,-0.05324 -0.10745,-0.0698 -0.12627,-0.126269 -0.0266,-0.07986 0.0266,-0.1726786 0,-0.2525382 -0.0192,-0.057642 -0.32194,-0.321941 -0.37881,-0.3788072 -0.0421,-0.04209 -0.0842,-0.084179 -0.12627,-0.1262691 -0.0421,-0.04209 -0.0698,-0.1074459 -0.12627,-0.126269 -0.0799,-0.02662 -0.17267,0.02662 -0.25253,0 -0.0565,-0.018823 -0.0698,-0.107446 -0.12627,-0.1262691 -0.0254,-0.00847 -0.72433,-0.00832 -0.75762,0 -0.0913,0.022826 -0.16325,0.096507 -0.25254,0.1262691 -0.0399,0.01331 -0.0863,-0.01331 -0.12626,0 -0.17858,0.059524 -0.33672,0.1683587 -0.50508,0.2525381 -0.0842,0.04209 -0.16836,0.084179 -0.25254,0.1262691 -0.0842,0.04209 -0.17724,0.0698 -0.25254,0.126269 -0.0952,0.071429 -0.1573,0.1811096 -0.25254,0.2525382 -0.36873,0.2765498 -0.17369,-0.063029 -0.50507,0.3788072 -0.0565,0.075292 -0.0698,0.1772458 -0.12627,0.2525381 -0.0714,0.095238 -0.16836,0.1683588 -0.25254,0.2525382 -0.23489,0.2348912 -0.34579,0.3127714 -0.50508,0.6313453 -0.0595,0.1190476 -0.0842,0.2525378 -0.12626,0.3788068 -0.18115,0.543442 -0.094,0.249682 -0.25254,0.883884 -0.0421,0.168359 -0.10475,0.332876 -0.12627,0.505076 -0.0366,0.292353 0,0.589256 0,0.883884 0,0.294627 0,0.589255 0,0.883883 0,0.126269 -0.0248,0.25499 0,0.378807 0.0185,0.09229 0.0842,0.168359 0.12627,0.252538 0.0421,0.08418 0.0597,0.185989 0.12627,0.252539 0.0665,0.06655 0.18599,0.05972 0.25253,0.126269 0.0666,0.06655 0.0597,0.185988 0.12627,0.252538 0.058,0.05801 0.65046,0.325228 0.75762,0.378807 0.16836,0.08418 0.34846,0.148126 0.50507,0.252538 0.0495,0.03302 0.0698,0.107446 0.12627,0.126269 0.0799,0.02662 0.16836,0 0.25254,0 0.0842,0 0.16836,0 0.25254,0 0.25254,0 0.50508,0 0.75761,0 0.0842,0 0.17088,0.02042 0.25254,0 0.0913,-0.02283 0.16124,-0.103443 0.25254,-0.126269 0.0817,-0.02042 0.17087,0.02042 0.25254,0 0.20385,-0.05096 0.25045,-0.124183 0.37881,-0.252538 0.0421,-0.04209 0.073,-0.09965 0.12627,-0.126269 0.0753,-0.03765 0.17724,0.03765 0.25253,0 0.0532,-0.02662 0.0842,-0.08418 0.12627,-0.126269"
       id="path3807"
       inkscape:connector-curvature="0" />
    <path
       style="fill:none;fill-rule:evenodd;stroke:#000000;stroke-width:1px;stroke-linecap:butt;stroke-linejoin:miter;stroke-opacity:1"
       d="m 119.70308,15.440615 c -0.1396,-0.186133 -0.41693,-0.493153 -0.50508,-0.757614 -0.0133,-0.03993 0.0133,-0.08634 0,-0.126269 -0.0298,-0.08929 -0.10344,-0.161233 -0.12627,-0.252538 -0.0204,-0.08167 0.0165,-0.169994 0,-0.252538 -0.0261,-0.130515 -0.10016,-0.248293 -0.12627,-0.378808 -0.0165,-0.08254 0,-0.168358 0,-0.252538 0,-0.420897 0,-0.841794 0,-1.26269 0,-0.12627 0.0208,-0.254257 0,-0.378808 -0.0219,-0.131288 -0.10439,-0.247519 -0.12627,-0.378807 -0.0208,-0.124551 0.0208,-0.254256 0,-0.378807 -0.0219,-0.131288 -0.10438,-0.247519 -0.12627,-0.378807 -0.0208,-0.124551 0.0248,-0.254991 0,-0.378808 -0.0185,-0.09229 -0.10344,-0.161232 -0.12626,-0.252538 -0.0204,-0.081666 0.0266,-0.1726782 0,-0.2525378 -0.0188,-0.056469 -0.0996,-0.073029 -0.12627,-0.1262691 -0.0376,-0.075292 0.0376,-0.1772458 0,-0.2525381 -0.0266,-0.05324 -0.0996,-0.073029 -0.12627,-0.1262691 -0.0192,-0.038428 0,-0.3219409 0,-0.3788072 0,-0.3367175 0,-0.673435 0,-1.0101525 0,-0.066029 -0.0166,-0.4718749 0,-0.5050763 0.0266,-0.05324 0.0996,-0.073029 0.12627,-0.1262691 0.0376,-0.075292 -0.0842,-0.2525381 0,-0.2525381 0.0421,0 0,0.084179 0,0.1262691 0,0.04209 0,0.084179 0,0.126269 0,0.2961235 -0.0298,-0.059524 0.12627,0.2525382 0.0188,0.037646 0,0.084179 0,0.126269 0,0.04209 0,0.084179 0,0.1262691 0,0.8375636 -0.0595,-0.1785714 0.12626,0.3788072 0.0532,0.1597192 -0.0532,0.3453571 0,0.5050763 0.0188,0.056469 0.10745,0.0698 0.12627,0.1262691 0.0192,0.057754 -0.0281,0.4488894 0,0.5050762 0.15603,0.312062 0.12627,-0.043585 0.12627,0.2525382 0,0.066029 0.0166,0.4718749 0,0.5050759 -0.0266,0.05324 -0.0667,0.126269 -0.12627,0.126269 -0.0421,0 0,-0.08418 0,-0.126269 0,-0.056866 -0.0192,-0.3403789 0,-0.3788069 0.0266,-0.05324 0.0842,-0.084179 0.12627,-0.126269 0.28952,-0.2895142 -0.0532,0.079859 0.25254,-0.3788072 0.033,-0.049527 0.0997,-0.073029 0.12627,-0.1262691 0.0188,-0.037646 0,-0.084179 0,-0.1262691 0.0421,-0.084179 0.0741,-0.1742294 0.12627,-0.2525381 0.033,-0.049527 0.0842,-0.084179 0.12627,-0.1262691 0.1941,-0.194102 0.4148,-0.3605259 0.50507,-0.6313453 0.0133,-0.03993 -0.0188,-0.088623 0,-0.1262691 0.0266,-0.05324 0.0842,-0.084179 0.12627,-0.1262691 0.0421,-0.04209 0.0767,-0.093251 0.12627,-0.126269 0.15662,-0.1044117 0.34846,-0.1481265 0.50508,-0.2525382 0.0495,-0.033018 0.0767,-0.093251 0.12627,-0.126269 0.0783,-0.052206 0.16836,-0.084179 0.25254,-0.1262691 0.0842,-0.04209 0.16123,-0.1034427 0.25253,-0.1262691 0.0817,-0.020416 0.17088,0.020416 0.25254,0 0.0913,-0.022826 0.16123,-0.1034427 0.25254,-0.126269 0.0817,-0.020417 0.17087,0.020416 0.25254,0 0.0913,-0.022826 0.16325,-0.096507 0.25254,-0.1262691 0.0399,-0.01331 0.0863,0.01331 0.12627,0 0.0893,-0.029762 0.16325,-0.096507 0.25253,-0.1262691 0.15132,-0.050438 0.10123,0.050438 0.25254,0 0.0893,-0.029762 0.16325,-0.096507 0.25254,-0.126269 0.0399,-0.01331 0.0863,0.01331 0.12627,0 0.0893,-0.029762 0.16325,-0.096507 0.25254,-0.1262691 0.22158,-0.07386 0.11989,0.1326415 0.3788,-0.1262691"
       id="path3809"
       inkscape:connector-curvature="0" />
  </g>
</svg>
