<?xml version="1.0" standalone="yes"?>
<svg width="300" height="90">
<path style="fill:#ffffff; stroke:none;" d="M0 0L0 90L300 90L300 0L0 0z"/>
<path style="fill:#010101; stroke:none;" d="M230 20L230 51L234 51L234 42C238.477 46.3844 242.504 50.5282 249 51L238 40L248 29C241.592 29.2079 238.376 32.6391 234 37L234 20L230 20M15 21L15 51L19 51L19 39C26.648 38.9949 42.4466 31.8084 30.7215 23.0093C26.5634 19.8888 19.8789 21 15 21M170 21L170 51L174 51L174 26L181 45L186 45L192 26C194.282 33.721 193 42.9753 193 51L197 51L197 21C187.522 21.1123 185.25 30.6534 184 39C180.503 31.1487 180.146 21.1209 170 21z"/>
<path style="fill:#ffffff; stroke:none;" d="M19 24L19 36C32.2143 35.9533 32.2143 24.0467 19 24z"/>
<path style="fill:#010101; stroke:none;" d="M44 31L39 29L39 51L43 51C43 43.6063 40.9696 30.5983 52 32L52 28C48.588 28.1844 46.5059 28.649 44 31M60.0154 28.6535C47.2059 32.7242 53.155 54.7412 66.9846 50.3465C79.7941 46.2758 73.845 24.2588 60.0154 28.6535M96 46C79.0061 52.1448 79.0061 26.8552 96 33C92.8742 23.1039 78.8441 29.5458 78.1235 38C77.2975 47.6904 92.3342 57.6057 96 46M121 46C114.052 48.2016 108.508 48.3416 105 41L122 41C121.651 26.1733 101.986 23.3169 101.11 39C100.543 49.1426 117.448 56.9624 121 46M126 46C127.268 53.3043 140.152 52.6569 142.353 45.9568C145.103 37.5822 134.29 40.1059 131.921 35.7014C128.706 29.7238 140 32.2726 142 33C140.004 26.6804 128.196 25.8781 126.478 33.1011C124.571 41.1118 134.483 38.9815 137.079 43.4938C139.45 47.6158 132.075 47.6688 130.045 47.2415L126 46M147 46C148.268 53.3042 161.152 52.6569 163.353 45.9568C166.103 37.5822 155.29 40.1059 152.921 35.7014C149.706 29.7238 161 32.2726 163 33C161.004 26.6804 149.196 25.8781 147.478 33.1011C145.571 41.1118 155.483 38.9815 158.079 43.4938C160.45 47.6158 153.075 47.6688 151.045 47.2415L147 46M205 33C210.876 30.8629 215.04 30.8583 218 37C214.143 37.0026 209.481 36.508 206.148 38.858C196.267 45.8251 210.042 53.2528 218 48C218.578 50.6975 219.261 50.7893 222 51C222 45.4217 223.498 37.1915 220.543 32.2137C217.142 26.4849 207.089 26.5526 205 33M271 46C264.052 48.2016 258.508 48.3416 255 41L272 41C271.651 26.1733 251.986 23.3169 251.11 39C250.543 49.1426 267.448 56.9624 271 46M283 31L278 29L278 51L282 51C282 43.6063 279.97 30.5983 291 32L291 28C287.588 28.1844 285.506 28.649 283 31z"/>
<path style="fill:#ffffff; stroke:none;" d="M61.1088 32.0471C54.1081 35.6535 57.1048 50.8791 65.787 47.2423C73.3789 44.0622 69.3583 27.7973 61.1088 32.0471M105 38L118 38C116.168 29.1382 107.687 30.1888 105 38M255 38L268 38C266.168 29.1382 257.687 30.1888 255 38M218 40L212.98 40.1088C200.977 41.5188 216.304 55.0894 218 40z"/>
</svg>
